<?xml version="1.0" encoding="UTF-8"?>
<svg id="Layer_1" data-name="Layer 1" xmlns="http://www.w3.org/2000/svg" viewBox="0 0 246.57 63.8">
  <g>
    <g>
      <path d="M180.1,44.96c-.36-.19-.62-.41-.78-.67-.16-.26-.24-.56-.24-.92,0-.56.2-1.02.6-1.39.4-.37.93-.55,1.58-.55.57,0,1.01.14,1.31.41.3.27.45.64.45,1.11,0,.29-.07.54-.21.76-.14.22-.39.45-.76.68.42.17.72.36.9.58.25.3.37.69.37,1.17,0,.66-.22,1.2-.67,1.64s-1.02.66-1.72.66c-.61,0-1.09-.17-1.46-.51-.37-.34-.55-.78-.55-1.31,0-.39.09-.71.26-.96.17-.26.49-.49.94-.7ZM180.53,45.16c-.25.21-.42.42-.53.64-.11.22-.16.47-.16.73,0,.4.12.73.37,1,.24.26.54.39.89.39.31,0,.58-.11.79-.34s.32-.51.32-.85c0-.21-.04-.4-.13-.57-.09-.17-.22-.32-.4-.44-.18-.12-.56-.31-1.14-.56ZM181.57,44.21c.2-.16.36-.33.46-.53.1-.19.15-.4.15-.62,0-.34-.1-.61-.29-.8-.19-.19-.45-.29-.78-.29-.31,0-.55.09-.73.26-.18.17-.27.4-.27.67,0,.26.09.48.27.66.18.19.58.4,1.19.65Z"/>
      <path d="M184.31,48.36l-.05-.06v-.29l.05-.06c.62-.06.97-.1,1.05-.13.06-.03.11-.07.13-.12.04-.09.07-.41.09-.96.03-.94.04-1.77.04-2.49,0-.95,0-1.48-.03-1.59-.01-.06-.04-.09-.09-.09-.03,0-.08.01-.14.04l-1.34.61-.06-.04c-.03-.24-.06-.43-.1-.59l.04-.07c1.22-.35,2.23-.69,3.04-1.02l.13.07c-.04.45-.07,1.07-.09,1.84-.02.78-.03,1.72-.03,2.83,0,.76.02,1.23.06,1.41.02.08.06.14.11.17.08.04.41.09.99.12l.06.06v.29l-.06.06h-.6c-.61-.03-1.02-.03-1.23-.03-.6,0-1.25.01-1.95.03Z"/>
      <path d="M190.36,44.89c.37-.38.63-.61.77-.68.19-.1.44-.15.73-.15.47,0,.85.17,1.14.5.29.34.44.8.44,1.4,0,.74-.22,1.34-.66,1.82-.4.44-.92.66-1.55.66-.43,0-.81-.11-1.15-.32-.33-.21-.59-.52-.78-.93-.18-.4-.27-.94-.27-1.6,0-.88.15-1.61.46-2.2.31-.59.75-1.06,1.33-1.42.58-.36,1.2-.54,1.87-.55l.42.37-.15.17c-.19-.03-.34-.05-.43-.05-.32,0-.65.11-.98.34s-.6.54-.8.94-.32.96-.39,1.68ZM191.24,44.95c-.29,0-.52.09-.67.27-.16.18-.24.47-.24.86,0,.67.09,1.15.28,1.43.19.28.43.42.73.42.26,0,.48-.11.64-.34.17-.22.25-.57.25-1.05,0-.57-.1-.98-.29-1.26-.17-.23-.4-.34-.7-.34Z"/>
      <path d="M196.87,48.36l-.05-.06v-.29l.05-.06c.62-.06.97-.1,1.05-.13.06-.03.11-.07.13-.12.04-.09.07-.41.09-.96.03-.94.04-1.77.04-2.49,0-.95,0-1.48-.03-1.59-.01-.06-.04-.09-.09-.09-.03,0-.08.01-.14.04l-1.34.61-.06-.04c-.03-.24-.06-.43-.1-.59l.04-.07c1.22-.35,2.23-.69,3.04-1.02l.13.07c-.04.45-.07,1.07-.09,1.84-.02.78-.03,1.72-.03,2.83,0,.76.02,1.23.06,1.41.02.08.06.14.11.17.08.04.41.09.99.12l.06.06v.29l-.06.06h-.6c-.61-.03-1.02-.03-1.23-.03-.6,0-1.25.01-1.95.03Z"/>
      <path d="M201.8,48.36l-.05-.06v-.29l.05-.06c.62-.06.97-.1,1.05-.13.06-.03.11-.07.13-.12.04-.09.07-.41.09-.96.03-.94.04-1.77.04-2.49,0-.95,0-1.48-.03-1.59-.01-.06-.04-.09-.09-.09-.03,0-.08.01-.14.04l-1.34.61-.06-.04c-.03-.24-.06-.43-.1-.59l.04-.07c1.22-.35,2.23-.69,3.04-1.02l.13.07c-.04.45-.07,1.07-.09,1.84-.02.78-.03,1.72-.03,2.83,0,.76.02,1.23.06,1.41.02.08.06.14.11.17.08.04.41.09.99.12l.06.06v.29l-.06.06h-.6c-.61-.03-1.02-.03-1.23-.03-.6,0-1.25.01-1.95.03Z"/>
      <path d="M206.83,48.36l-.05-.06v-.29l.05-.06c.62-.06.97-.1,1.05-.13.06-.03.11-.07.13-.12.04-.09.07-.41.09-.96.03-.94.04-1.77.04-2.49,0-.95,0-1.48-.03-1.59-.01-.06-.04-.09-.09-.09-.03,0-.08.01-.14.04l-1.34.61-.06-.04c-.03-.24-.06-.43-.1-.59l.04-.07c1.22-.35,2.23-.69,3.04-1.02l.13.07c-.04.45-.07,1.07-.09,1.84-.02.78-.03,1.72-.03,2.83,0,.76.02,1.23.06,1.41.02.08.06.14.11.17.08.04.41.09.99.12l.06.06v.29l-.06.06h-.6c-.61-.03-1.02-.03-1.23-.03-.6,0-1.25.01-1.95.03Z"/>
    </g>
    <g>
      <path d="M211.43,43.28l.42-.28c0-.37-.01-.7-.03-.98.29-.09.56-.2.82-.32l.09.07c-.05.31-.08.72-.09,1.23.1.02.19.03.29.03.21,0,.41-.01.58-.04l.03.02-.03.11c-.03.12-.05.23-.07.33-.25-.02-.43-.03-.54-.03-.09,0-.17,0-.25.01,0,.21,0,.4,0,.56,0,.71.02,1.11.06,1.21.04.1.14.15.3.15.05,0,.1,0,.15-.02s.11-.03.17-.04l.05.12c-.13.14-.25.29-.37.44-.08.01-.15.02-.22.03s-.12,0-.18,0c-.18,0-.33-.03-.45-.09-.12-.06-.21-.14-.26-.24-.05-.1-.08-.24-.08-.43,0-.1,0-.37.02-.8.01-.38.02-.68.02-.9h-.16c-.07,0-.15,0-.26.01v-.16Z"/>
      <path d="M213.67,45.82v-.26c.23-.01.36-.03.39-.05.02-.01.04-.03.05-.06.02-.05.03-.25.03-.58v-1.17c0-.62,0-1.18-.01-1.69,0-.19-.02-.3-.06-.34-.03-.03-.17-.05-.41-.06v-.23c.13,0,.32-.02.56-.07.24-.05.44-.1.6-.17.06-.03.1-.04.11-.04.03,0,.05.02.05.06v.02c0,.05,0,.13,0,.23l-.02,1.02c0,.25,0,.53,0,.85l.42-.35c.09-.07.16-.12.2-.14.11-.04.24-.07.39-.07.33,0,.58.08.73.25.16.17.23.43.23.78v1.25c-.01.22,0,.36.01.42,0,.03.04.06.07.08.04.02.16.03.35.04v.26c-.26-.01-.49-.02-.69-.02-.19,0-.38,0-.59.02l-.04-.05c.04-.41.06-.81.06-1.21,0-.54-.03-.88-.09-1-.08-.16-.24-.24-.46-.24-.13,0-.25.03-.35.09-.1.06-.17.13-.21.22-.04.08-.06.24-.06.47v.97c.01.22.02.35.04.39.01.02.03.04.05.05.05.02.18.04.41.05v.26c-.24-.01-.5-.02-.76-.02-.38,0-.72,0-1.01.02Z"/>
    </g>
    <g>
      <path d="M220.69,46.3h.43c0,.48.02.76.05.84.03.08.12.19.28.33.16.13.37.24.62.33.25.08.51.13.78.13.46,0,.82-.12,1.1-.37.27-.24.41-.54.41-.91,0-.33-.09-.59-.27-.77-.18-.18-.54-.3-1.05-.38-.77-.11-1.28-.23-1.55-.36-.27-.13-.48-.32-.63-.58s-.23-.57-.23-.93c0-.61.21-1.13.64-1.55.43-.42,1.11-.64,2.06-.64.37,0,.7.03.98.08.29.06.57.15.86.27l.05.12c-.05.2-.09.39-.11.55-.02.17-.04.45-.06.86h-.42c-.02-.5-.04-.78-.07-.84-.06-.11-.22-.22-.47-.34-.25-.12-.54-.18-.86-.18-.44,0-.79.11-1.03.32-.24.22-.37.49-.37.83,0,.21.05.39.15.54.1.15.24.27.42.34.18.07.57.16,1.16.25.54.08.9.16,1.09.24.31.13.55.32.71.58.16.26.24.59.24.98,0,.69-.26,1.26-.79,1.71s-1.24.68-2.15.68c-.41,0-.77-.04-1.1-.12-.33-.08-.67-.21-1.03-.38.06-.23.1-.43.12-.62.03-.26.04-.6.04-1.04Z"/>
      <path d="M226.12,44.45l.65-.42c0-.57-.02-1.08-.05-1.51.44-.14.86-.3,1.25-.5l.15.11c-.07.47-.12,1.1-.15,1.89.15.03.3.04.44.04.33,0,.63-.02.89-.07l.04.03-.04.17c-.05.18-.08.35-.11.5-.38-.03-.66-.04-.84-.04-.13,0-.26,0-.39.02,0,.33,0,.62,0,.87,0,1.09.03,1.71.1,1.86.06.15.22.22.46.22.07,0,.15,0,.23-.02.08-.02.17-.04.27-.07l.08.18c-.19.22-.38.44-.57.68-.12.02-.23.03-.33.04-.1,0-.19.01-.28.01-.27,0-.5-.05-.68-.14-.18-.09-.32-.22-.4-.37s-.12-.37-.12-.67c0-.16,0-.57.02-1.23.02-.58.02-1.04.02-1.38h-.25c-.1,0-.24,0-.4.02v-.25Z"/>
      <path d="M229.44,48.36v-.4c.33-.02.51-.04.56-.06.04-.02.07-.05.09-.09.04-.08.06-.25.06-.52.01-.47.02-.91.02-1.29,0-.75,0-1.2-.03-1.33,0-.08-.04-.14-.09-.17s-.26-.06-.62-.07v-.37c.65-.06,1.12-.14,1.4-.23l.5-.19s.07.03.07.09v.07c-.01.2-.02.5-.02.88.17-.16.35-.36.55-.6.15-.18.28-.3.39-.36s.26-.08.44-.08c.1,0,.21.02.32.05-.03.32-.05.77-.06,1.32l-.22.08c-.08-.13-.16-.21-.25-.27-.09-.05-.21-.08-.35-.08-.19,0-.36.05-.5.15-.14.1-.23.22-.27.35-.03.1-.04.43-.04,1,0,.82.01,1.3.03,1.44.01.09.04.15.09.19.07.05.32.08.73.1v.4h-.54c-.35-.02-.65-.03-.9-.03s-.52,0-.84.01h-.55Z"/>
      <path d="M237.53,47.42l.14.14-.22.46c-.23.15-.48.25-.75.33s-.55.11-.85.11c-.71,0-1.26-.21-1.67-.62-.41-.41-.61-.99-.61-1.73,0-.47.06-.86.18-1.17.1-.25.26-.46.48-.62.22-.17.48-.32.77-.47s.61-.22.96-.22c.53,0,.97.15,1.32.45s.52.78.52,1.44c0,.08,0,.2-.02.37l-.8.15c-.25.02-.6.02-1.07.02h-1.05c.05.56.22.98.5,1.26s.65.42,1.09.42c.18,0,.37-.03.55-.08s.36-.13.54-.24ZM234.82,45.53c.29.03.58.04.88.04.26,0,.53-.01.81-.04v-.23c0-.4-.07-.69-.21-.88-.15-.18-.34-.28-.59-.28-.18,0-.33.04-.45.13-.13.09-.22.21-.28.36s-.11.45-.14.89Z"/>
      <path d="M242.56,47.42l.14.14-.22.46c-.23.15-.48.25-.75.33s-.55.11-.85.11c-.71,0-1.26-.21-1.67-.62-.41-.41-.61-.99-.61-1.73,0-.47.06-.86.18-1.17.1-.25.26-.46.48-.62.22-.17.48-.32.77-.47s.61-.22.96-.22c.53,0,.97.15,1.32.45s.52.78.52,1.44c0,.08,0,.2-.02.37l-.8.15c-.25.02-.6.02-1.07.02h-1.05c.05.56.22.98.5,1.26s.65.42,1.09.42c.18,0,.37-.03.55-.08s.36-.13.54-.24ZM239.85,45.53c.29.03.58.04.88.04.26,0,.53-.01.81-.04v-.23c0-.4-.07-.69-.21-.88-.15-.18-.34-.28-.59-.28-.18,0-.33.04-.45.13-.13.09-.22.21-.28.36s-.11.45-.14.89Z"/>
      <path d="M243.36,44.45l.65-.42c0-.57-.02-1.08-.05-1.51.44-.14.86-.3,1.25-.5l.15.11c-.07.47-.12,1.1-.15,1.89.15.03.3.04.44.04.33,0,.63-.02.89-.07l.04.03-.04.17c-.05.18-.08.35-.11.5-.38-.03-.66-.04-.84-.04-.13,0-.26,0-.39.02,0,.33,0,.62,0,.87,0,1.09.03,1.71.1,1.86.06.15.22.22.46.22.07,0,.15,0,.23-.02.08-.02.17-.04.27-.07l.08.18c-.19.22-.38.44-.57.68-.12.02-.23.03-.33.04-.1,0-.19.01-.28.01-.27,0-.5-.05-.68-.14-.18-.09-.32-.22-.4-.37s-.12-.37-.12-.67c0-.16,0-.57.02-1.23.02-.58.02-1.04.02-1.38h-.25c-.1,0-.24,0-.4.02v-.25Z"/>
    </g>
    <g>
      <path d="M155.96,60.03c.3-.02.49-.05.56-.09.05-.03.12-.16.23-.37.2-.42.45-1.01.76-1.76l1.72-4.22h.71l2.2,5.22c.29.66.46,1.02.53,1.08.07.06.27.11.62.13v.44c-.53-.02-1.03-.03-1.5-.03-.56,0-1.09.01-1.6.03v-.44c.39-.02.61-.04.67-.06s.09-.08.09-.14c0-.06-.07-.27-.2-.62l-.32-.81c-.4,0-.85-.01-1.35-.01-.43,0-.82,0-1.18.01l-.21.55c-.06.15-.13.37-.21.67-.02.07-.03.13-.03.18,0,.07.03.12.09.15s.29.06.68.09v.44c-.32-.02-.71-.03-1.19-.03s-.81.01-1.07.03v-.44ZM159.15,55.32l-1.03,2.5c.3.02.63.02.99.02.38,0,.74,0,1.08-.02l-1.04-2.5Z"/>
      <path d="M163.54,60.48v-.4c.33-.02.51-.04.56-.06.04-.02.07-.05.09-.09.04-.08.06-.25.06-.52.01-.47.02-.91.02-1.29,0-.75,0-1.2-.03-1.33,0-.08-.04-.14-.09-.17s-.26-.06-.62-.07v-.37c.65-.06,1.12-.14,1.4-.23l.5-.19s.07.03.07.09v.07c-.01.2-.02.5-.02.88.17-.16.35-.36.55-.6.15-.18.28-.3.39-.36s.26-.08.44-.08c.1,0,.21.02.32.05-.03.32-.05.77-.06,1.32l-.22.08c-.08-.13-.16-.21-.25-.27-.09-.05-.21-.08-.35-.08-.19,0-.36.05-.5.15-.14.1-.23.22-.27.35-.03.1-.04.43-.04,1,0,.82.01,1.3.03,1.44.01.09.04.15.09.19.07.05.32.08.73.1v.4h-.54c-.35-.02-.65-.03-.9-.03s-.52,0-.84.01h-.55Z"/>
      <path d="M167.56,53.96v-.28c.46-.06.82-.12,1.09-.19.27-.07.55-.16.86-.28l.13.11c-.05,1.16-.07,2.78-.07,4.86,0,.42,0,.84.02,1.27,0,.27.02.43.05.47.02.04.06.08.12.11.05.03.25.04.58.06v.4h-.51c-.32-.02-.58-.03-.8-.03l-1.45.03v-.4l.36-.02c.16,0,.27-.04.31-.09.05-.05.08-.26.08-.61.02-.49.02-1.19.02-2.09v-2.08c0-.63-.03-.99-.06-1.07-.01-.04-.04-.07-.07-.09-.06-.04-.28-.06-.65-.07Z"/>
      <path d="M170.93,60.48v-.4c.37-.01.58-.04.63-.07.06-.03.09-.12.11-.27.03-.2.04-.66.04-1.35,0-.3,0-.58-.01-.84v-.57c-.01-.19-.04-.3-.08-.35-.04-.04-.15-.07-.33-.08h-.36v-.39c.78-.06,1.42-.2,1.93-.42l.12.1c-.05.62-.07,1.52-.07,2.71,0,.69.01,1.1.03,1.24.02.1.05.17.09.2.04.03.25.06.63.09v.4c-.58-.02-1.04-.03-1.36-.03-.17,0-.63,0-1.38.03ZM172.28,53.42c.21,0,.38.07.53.22s.22.33.22.54-.07.38-.22.53c-.15.15-.33.22-.54.22s-.38-.07-.53-.22-.22-.33-.22-.53.07-.39.22-.54c.15-.15.33-.22.54-.22Z"/>
      <path d="M174.23,60.48v-.4c.35-.02.55-.05.6-.08.05-.04.07-.12.08-.25.02-.33.03-.91.03-1.73,0-.41,0-.76-.02-1.06,0-.18-.02-.29-.04-.32-.02-.03-.04-.05-.08-.06-.04-.01-.23-.02-.57-.03v-.37c.18,0,.45-.04.82-.11.37-.08.68-.16.94-.26l.13-.04s.07.04.07.11v.04c-.01.09-.02.32-.02.7l.75-.63c.09-.08.19-.14.29-.17.14-.04.32-.06.52-.06.34,0,.62.06.84.18.22.12.38.28.48.49.1.21.15.54.15.98,0,.2,0,.42-.01.68-.02.53-.02.98-.02,1.37,0,.22.02.37.05.45.03.06.06.1.11.12s.22.04.53.07v.4l-.6-.02h-.38s-1,.02-1,.02l-.05-.06c.08-.62.13-1.25.13-1.9,0-.82-.05-1.33-.15-1.52-.13-.25-.37-.37-.71-.37-.22,0-.41.06-.57.17s-.27.23-.32.36c-.02.05-.03.22-.03.49,0,1.18,0,1.85.01,2.02,0,.17.04.28.08.31.06.05.28.08.65.1v.4c-.56-.02-1.04-.03-1.43-.03-.23,0-.65,0-1.26.03Z"/>
      <path d="M185.36,56.72h-.81c.05.16.07.31.07.44,0,.6-.21,1.04-.64,1.34-.42.29-.92.44-1.49.44-.09,0-.22,0-.4-.02-.15.09-.24.16-.28.21-.04.05-.06.11-.06.17,0,.16.11.25.33.28.12.02.78.03,1.97.03.4,0,.68.04.83.1.15.07.28.19.38.37.1.18.15.41.15.69,0,.65-.26,1.2-.77,1.64-.52.44-1.21.66-2.09.66-.75,0-1.3-.13-1.67-.39-.37-.26-.55-.59-.55-1,0-.23.06-.43.17-.58.05-.07.23-.19.54-.37l.35-.2c-.26-.05-.44-.12-.53-.21-.09-.09-.13-.21-.13-.37,0-.17.06-.38.19-.63l.16-.1c.18-.12.36-.25.53-.39-.37-.13-.64-.31-.8-.54-.17-.23-.25-.51-.25-.86,0-.5.19-.9.57-1.22s.92-.48,1.61-.48c.34,0,.64.03.9.1.19.05.38.14.57.28.71,0,1.18,0,1.4-.03l.08.1c-.09.12-.19.3-.32.53ZM181.93,60.6c-.27.2-.45.37-.53.5-.08.13-.12.29-.12.46,0,.31.12.56.37.76s.6.29,1.07.29c.34,0,.63-.05.87-.16.24-.11.42-.25.54-.44s.18-.4.18-.63c0-.21-.05-.39-.15-.54-.07-.1-.17-.17-.29-.2s-.49-.04-1.08-.04h-.85ZM181.82,57.14c0,.49.07.83.21,1.03s.35.3.62.3c.25,0,.44-.09.57-.26.14-.17.2-.45.2-.82,0-.41-.07-.7-.21-.89-.14-.19-.34-.28-.59-.28s-.44.08-.58.24c-.14.16-.22.39-.22.68Z"/>
      <path d="M185.71,56.57l.65-.42c0-.57-.02-1.08-.05-1.51.44-.14.86-.3,1.25-.5l.15.11c-.07.47-.12,1.1-.15,1.89.15.03.3.04.44.04.33,0,.63-.02.89-.07l.04.03-.04.17c-.05.18-.08.35-.11.5-.38-.03-.66-.04-.84-.04-.13,0-.26,0-.39.02,0,.33,0,.62,0,.87,0,1.09.03,1.71.1,1.86.06.15.22.22.46.22.07,0,.15,0,.23-.02.08-.02.17-.04.27-.07l.08.18c-.19.22-.38.44-.57.68-.12.02-.23.03-.33.04-.1,0-.19.01-.28.01-.27,0-.5-.05-.68-.14-.18-.09-.32-.22-.4-.37s-.12-.37-.12-.67c0-.16,0-.57.02-1.23.02-.58.02-1.04.02-1.38h-.25c-.1,0-.24,0-.4.02v-.25Z"/>
      <path d="M189.31,58.16c0-.77.18-1.35.54-1.73.43-.46,1.05-.69,1.87-.69s1.4.18,1.78.55c.37.37.56.95.56,1.74s-.21,1.44-.64,1.88c-.43.44-1.03.66-1.79.66s-1.32-.21-1.72-.62-.59-1.01-.59-1.8ZM190.66,57.83c0,.86.11,1.48.33,1.85.17.28.43.42.77.42.3,0,.53-.12.7-.36s.25-.68.25-1.31c0-.87-.1-1.47-.3-1.81-.17-.27-.42-.4-.77-.4-.3,0-.54.12-.71.37-.17.24-.26.66-.26,1.24Z"/>
      <path d="M194.73,60.48v-.4c.35-.02.55-.05.6-.08.05-.04.07-.12.08-.25.02-.33.03-.91.03-1.73,0-.41,0-.76-.02-1.06,0-.18-.02-.29-.04-.32-.02-.03-.04-.05-.08-.06-.04-.01-.23-.02-.57-.03v-.37c.18,0,.45-.04.82-.11.37-.08.68-.16.94-.26l.13-.04s.07.04.07.11v.04c-.01.09-.02.32-.02.7l.75-.63c.09-.08.19-.14.29-.17.14-.04.32-.06.52-.06.34,0,.62.06.84.18.22.12.38.28.48.49.1.21.15.54.15.98,0,.2,0,.42-.01.68-.02.53-.02.98-.02,1.37,0,.22.02.37.05.45.03.06.06.1.11.12s.22.04.53.07v.4l-.6-.02h-.38s-1,.02-1,.02l-.05-.06c.08-.62.13-1.25.13-1.9,0-.82-.05-1.33-.15-1.52-.13-.25-.37-.37-.71-.37-.22,0-.41.06-.57.17s-.27.23-.32.36c-.02.05-.03.22-.03.49,0,1.18,0,1.85.01,2.02,0,.17.04.28.08.31.06.05.28.08.65.1v.4c-.56-.02-1.04-.03-1.43-.03-.23,0-.65,0-1.26.03Z"/>
      <path d="M200.63,62.15l-.16-.17c.24-.42.43-.85.57-1.3s.23-.88.26-1.27c.52-.07.96-.19,1.33-.34l.18.17c-.42.93-.91,1.79-1.46,2.59-.17.09-.41.2-.71.33Z"/>
      <path d="M207.25,60.48v-.41c.18,0,.38-.02.58-.05.09-.02.16-.04.2-.08s.07-.11.09-.21c.02-.14.04-.65.06-1.54,0-.63.01-1.27.01-1.92,0-1.29,0-1.94-.01-1.96,0-.02-.12-.04-.34-.04-.45,0-.84.01-1.17.04-.19.02-.29.03-.32.05s-.04.04-.06.08c-.01.04-.04.33-.08.85h-.42c0-.62,0-1.16-.05-1.6l.05-.04c1.02.05,2.01.07,2.98.07s2.04-.02,3.23-.07l.05.08c-.06.45-.11.97-.13,1.57h-.4c-.03-.55-.06-.84-.09-.89-.02-.04-.08-.06-.16-.07-.26-.04-.78-.06-1.55-.06-.07,0-.1,0-.12.03-.01.02-.02.11-.02.26l-.03,3.27c0,.95,0,1.53.02,1.75.02.22.05.35.12.39.04.03.3.06.77.1v.41c-.48-.02-.98-.03-1.52-.03-.71,0-1.28.01-1.71.03Z"/>
      <path d="M212.34,60.48v-.41c.29-.02.47-.05.54-.09s.22-.21.46-.52l1.64-2.18c-.51-.9-.92-1.59-1.23-2.07-.31-.48-.54-.77-.69-.87-.08-.05-.18-.08-.3-.08-.07,0-.18.01-.32.03l-.04-.4,1.82-.37c.2.14.36.29.48.45.12.16.35.55.68,1.16l.52.95,1.19-1.73c.2-.29.36-.53.46-.71.18.02.34.03.49.03.18,0,.4-.01.65-.03v.4c-.27.02-.44.05-.51.09-.09.05-.24.22-.47.51l-1.51,1.97.32.58c.56,1.01.95,1.69,1.17,2.04.3.46.48.71.53.75s.21.06.45.08v.41c-.37-.02-.72-.03-1.05-.03-.3,0-.59.01-.88.03-.12-.2-.29-.5-.51-.89l-.97-1.77-.95,1.37c-.11.17-.38.6-.8,1.29-.25-.02-.44-.03-.56-.03s-.33.01-.62.03Z"/>
      <path d="M226.33,53.66v.47c-.67,1.15-1.29,2.33-1.86,3.56-.57,1.23-.97,2.16-1.18,2.8-.26-.02-.46-.03-.59-.03-.15,0-.33.01-.56.03l-.05-.15c.33-.53.65-1.04.94-1.53.29-.49.73-1.24,1.32-2.27l.88-1.55-.05-.08h-.99s-.87,0-.87,0c-.5,0-.8.02-.91.06-.06.02-.1.07-.14.14-.05.13-.11.45-.16.97l-.04.04-.4-.03c.02-.37.03-.8.03-1.29,0-.32-.01-.68-.03-1.09l.08-.08c.95.06,1.92.08,2.92.08.46,0,1.01-.01,1.65-.03Z"/>
      <path d="M227.95,57.01c.37-.38.63-.61.77-.68.19-.1.44-.15.73-.15.47,0,.85.17,1.14.5.29.34.44.8.44,1.4,0,.74-.22,1.34-.66,1.82-.4.44-.92.66-1.55.66-.43,0-.81-.11-1.15-.32-.33-.21-.59-.52-.78-.93-.18-.4-.27-.94-.27-1.6,0-.88.15-1.61.46-2.2.31-.59.75-1.06,1.33-1.42.58-.36,1.2-.54,1.87-.55l.42.37-.15.17c-.19-.03-.34-.05-.43-.05-.32,0-.65.11-.98.34s-.6.54-.8.94-.32.96-.39,1.68ZM228.83,57.07c-.29,0-.52.09-.67.27-.16.18-.24.47-.24.86,0,.67.09,1.15.28,1.43.19.28.43.42.73.42.26,0,.48-.11.64-.34.17-.22.25-.57.25-1.05,0-.57-.1-.98-.29-1.26-.17-.23-.4-.34-.7-.34Z"/>
      <path d="M231.63,57.17c0-.94.09-1.66.28-2.15s.46-.86.81-1.1c.35-.24.77-.36,1.25-.36s.87.1,1.17.31c.3.21.54.53.7.98.16.44.24,1.12.24,2.04s-.1,1.67-.29,2.19-.46.89-.79,1.14-.74.36-1.22.36-.85-.11-1.18-.34-.58-.56-.73-.99-.24-1.12-.24-2.07ZM232.84,56.53c0,1.03.05,1.8.14,2.29.09.5.23.83.41,1.02.14.14.3.21.51.21.31,0,.54-.14.69-.43.19-.35.29-1.04.29-2.05,0-1.24-.09-2.17-.27-2.77-.14-.47-.4-.71-.78-.71-.31,0-.55.16-.72.46s-.26.97-.26,1.98Z"/>
      <path d="M236.99,60.48l-.05-.06v-.29l.05-.06c.62-.06.97-.1,1.05-.13.06-.03.11-.07.13-.12.04-.09.07-.41.09-.96.03-.94.04-1.77.04-2.49,0-.95,0-1.48-.03-1.59-.01-.06-.04-.09-.09-.09-.03,0-.08.01-.14.04l-1.34.61-.06-.04c-.03-.24-.06-.43-.1-.59l.04-.07c1.22-.35,2.23-.69,3.04-1.02l.13.07c-.04.45-.07,1.07-.09,1.84-.02.78-.03,1.72-.03,2.83,0,.76.02,1.23.06,1.41.02.08.06.14.11.17.08.04.41.09.99.12l.06.06v.29l-.06.06h-.6c-.61-.03-1.02-.03-1.23-.03-.6,0-1.25.01-1.95.03Z"/>
      <path d="M242.02,60.48l-.05-.06v-.29l.05-.06c.62-.06.97-.1,1.05-.13.06-.03.11-.07.13-.12.04-.09.07-.41.09-.96.03-.94.04-1.77.04-2.49,0-.95,0-1.48-.03-1.59-.01-.06-.04-.09-.09-.09-.03,0-.08.01-.14.04l-1.34.61-.06-.04c-.03-.24-.06-.43-.1-.59l.04-.07c1.22-.35,2.23-.69,3.04-1.02l.13.07c-.04.45-.07,1.07-.09,1.84-.02.78-.03,1.72-.03,2.83,0,.76.02,1.23.06,1.41.02.08.06.14.11.17.08.04.41.09.99.12l.06.06v.29l-.06.06h-.6c-.61-.03-1.02-.03-1.23-.03-.6,0-1.25.01-1.95.03Z"/>
    </g>
  </g>
  <g>
    <path d="M99.23,11.78c.06,0,.19-.31.39.1l.18,3.47c-.14.04-.78.28-.81.25-.06-.07-.31-1.11-.45-1.38-.6-1.22-1.19-1.4-2.51-1.49-.94-.06-2.07-.04-2.98.16v5.88h3.77c.14,0,.6-.41.7-.58.24-.39.3-1.27.35-1.33.04-.05.76-.04.89.15.3.44-.06,3.9.05,4.68-.03.32-.9.31-.94.26-.05-.07-.15-1.23-.41-1.58-.08-.11-.88-.48-.96-.48h-3.45v5.33s.37.7.42.73c.44.26,1.91.24,1.98.31.08.06-.02.79-.24.79h-6.66c.03-.17-.04-.76,0-.79.02-.02.49,0,.68-.04,1.08-.2,1.33-.34,1.41-1.46.27-3.53-.2-7.4-.02-10.97-.22-1.66-1.82-.97-2.07-1.2-.03-.03-.04-.8,0-.8h10.67,0Z"/>
    <path d="M44.44,11.78c.1,1.13-.05.67-.85.83-.8.16-1.12.37-1.22,1.17l.06,11.36c.12.49.3.71.82.78.61.09,2.93.1,3.49-.02.38-.09.98-.69,1.23-1,.41-.51.76-1.54,1.04-1.83.35-.37.91-.2.88.38-.05,1.05-.88,2.49-.96,3.59h-11.23c.03-.17-.04-.76,0-.79.07-.06,1.4-.07,1.83-.34.37-.23.39-.62.42-1.01.29-3.63-.22-7.63-.01-11.29-.2-1.35-1.9-.87-2.08-1.04-.03-.03-.04-.8,0-.8h6.58Z"/>
    <path d="M165.72,11.78c.32,1.62-1.54.35-1.76,1.84.19,3.68-.28,7.64-.01,11.29.12,1.64,1.53.96,1.77,1.18.03.03.05.96,0,.96h-6.42c-.28-1.37.91-.73,1.53-1.26.27-.23.27-.72.37-1.06-.17-3.35.28-7.01.02-10.33-.05-.64-.12-1.36-.8-1.59-.76-.26-1.33.12-1.13-1.03h6.42,0Z"/>
    <path d="M117.27,22.12c1.13.07,2.62.04,2.97-1.27.42-1.53-.47-2.87-2.09-2.88-.22,0-.88.23-.88.4v3.74ZM113.75,27.05s-.02-.52.07-.65c.24-.35,1.38.28,1.54-1.18.14-1.35.16-4.87-.02-6.19-.2-1.51-1.36-.85-1.59-1.05-.2-.17,0-.76.55-.8,1.54-.12,5.03-.13,6.43.32,2.51.79,2.19,4.25-.25,4.78v.24c.85.94,1.64,2.86,2.67,3.55.31.21,1.17.34,1.02.9-.13.49-1.99.15-2.41,0-1.42-.48-2.23-2.72-3.09-3.85-.41-.28-.93-.2-1.4-.2v2.78c0,.65,1.14.46,1.45.63.33.18.08.72-.09.72-.68,0-4.71.16-4.89,0h0Z"/>
    <path d="M66.58,17.19s.03.77,0,.8c-.03.03-.56-.01-.81.07-.15.05-.63.4-.63.49v3.1c.36-.03.76-.27,1.04-.48.36-.27,2.32-2.23,2.42-2.54.31-.93-.75-.53-.9-.65-.07-.06.02-.79.24-.79h4.09c-.03.18.05.75,0,.79-.03.03-.36,0-.51.04-1.4.34-2.59,1.62-3.66,2.58-.2.18-.65.56-.65.8,0,.35,3.05,3.54,3.43,4.16.29.12.54.46.79.57.6.25,1.24-.11,1.08.92h-3.13c-.33,0-3.29-4.63-4.25-4.77v3.42c0,.7,1.39.5,1.44.56.03.03.04.8,0,.8h-4.97c-.17-1.12.59-.61,1.12-.87.3-.14.45-.64.48-.95.21-1.99-.16-4.33-.01-6.36-.17-1.17-1.48-.71-1.6-1.12-.06-.19.1-.56.24-.56.64,0,4.57-.17,4.73,0h0Z"/>
    <path d="M106,17.86c-3.27.55-3.04,7.54.17,8.51,1.6.48,2.97-.35,3.46-1.9.82-2.59-.05-7.21-3.62-6.61ZM112.12,22.15c0,2.92-2.39,5.28-5.33,5.28s-5.33-2.36-5.33-5.28,2.39-5.28,5.33-5.28,5.33,2.36,5.33,5.28Z"/>
    <path d="M81.34,17.19c-.02.47.47,2.55-.08,2.7-.6.17-.66-.89-.97-1.27-.1-.13-.54-.48-.64-.48h-2.65v3.34c.81-.12,2.22.38,2.61-.52.29-.67-.2-.87.92-.75v3.5c-1.12.12-.63-.09-.92-.75-.39-.9-1.79-.4-2.61-.52v3.26s.37.4.4.4h2.73c.67,0,1.17-1.47,1.44-1.75.3-.31.86-.3.78.28-.11.82-.43,1.6-.53,2.42h-8.66c-.2-1.47,1.63-.07,1.77-1.67.19-2.13-.14-4.52,0-6.68-.15-.87-1.35-.64-1.44-.72-.03-.03-.04-.8,0-.8h7.86Z"/>
    <path d="M124.49,27.05s-.02-.58.02-.62c.09-.11,1.08-.13,1.32-.21.43-.14.55-.9.6-1.32.13-1.4.11-3.84,0-5.26-.02-.3-.15-1.3-.32-1.43-.34-.25-1.24-.2-1.29-.24-.03-.02-.02-.51.07-.65.23-.34,6.76-.06,7.69-.13.43.14.25,1.36.26,1.81.01.45.44,1.02-.55.88-.11-.01-.55-1.76-1.29-1.76h-2.65v3.34c.54-.07,2.32.19,2.58-.26.28-.49-.07-1.18.95-1.01v3.5c-1.02.18-.67-.51-.95-1.01-.26-.45-2.04-.19-2.58-.26v3.1c0,.76,2.69.65,3.26.52.94-.21,1.18-1.69,1.42-1.85.14-.1.57.01.78-.02l-.64,2.86h-8.66,0Z"/>
    <path d="M219.48,22.28c2.83.68,3.23-4.16.71-4.15-.2,0-.71.04-.71.25v3.9ZM220.67,17.35c.61.26,1.18.12,1.8.45,1.37.72,1.55,2.85.52,3.93-.25.27-1,.5-.96.79.04.34,1.41,2.52,1.71,2.93.16.23.45.66.61.82.2.17.75.31.75.41-.07.12-.12.54-.27.55-.29.02-1.73-.27-1.98-.42-.21-.13-.71-.65-.89-.87-.53-.72-.98-2.15-1.46-2.69-.25-.29-.66-.35-1.03-.32v3.1c0,.08.36.28.48.33.55.2.75-.19.64.71h-4.01c-.07-.86.02-.52.52-.67.37-.11.64-.23.62-.67-.21-2.21.25-4.84-.02-7-.12-.94-.78-.49-1.11-.74-.07-.05.02-.46-.02-.62h4.1Z"/>
    <path d="M181.54,18.16c-.27.09-.25.29-.27.53-.18,2.22.12,4.72.04,6.97.09.81,1.5.68,2.1.56,2.62-.54,2.82-6.26.82-7.57-.62-.41-2-.71-2.69-.48ZM178.41,27.05c-.18-.98.32-.48.86-.78.16-.09.23-.4.25-.58.2-1.58.14-4.89.02-6.52-.02-.29-.04-.64-.25-.87-.39-.4-1.11-.01-.87-.95h4.4c.12,0,1.14.18,1.37.23,4.28.97,4.33,7.12.75,8.86-.3.14-1.71.61-1.96.61h-4.56Z"/>
    <path d="M167.33,27.05c-.1-.89.08-.52.65-.71.57-.19.6-.76.64-1.27.15-1.95-.12-4.08-.01-6.04-.11-.76-.74-1.01-1.44-1.04-.32-.94,2.11-.73,2.5-.48l5.21,6.53v-5.33c0-.5-1.02-.71-1.44-.72,0-.2-.06-.43.16-.56.22-.13,2.43-.13,2.82-.08.19.02.49.03.55.25.2.66-.95.51-1.1.74-.03.04-.15.86-.16,1.03-.24,2.51.14,5.31-.02,7.85-.3,0-.66.09-.88-.16-1.76-2.35-3.45-4.77-5.38-6.99v5.65c0,.08.3.46.42.54.55.35,1.04-.16.87.81h-3.37,0Z"/>
    <path d="M56.31,23.07l-1.36-3.34-1.36,3.34h2.73ZM60.96,27.05h-4.65c-.32-1.08,1-.61,1.12-1.04.08-.31-.64-1.56-.73-1.99l-3.58.02c.04.45-.69,1.75-.48,2.04.7.25,1.45-.03,1.27.97h-4.01c-.24-1.15,1.13-.55,1.48-1.48l3.62-8.34c.06-.36.59-.21.85-.12l3.71,8.57c.4.81,1.65.25,1.42,1.37h0Z"/>
    <path d="M141.81,17.2c.09.1.4,2.55.31,2.67-.03.04-.57.22-.61.18-.07-.07-.4-1.03-.65-1.35-.6-.78-1.3-1.06-2.29-.84-.91.2-1.08,1.26-.82,2.03.42,1.28,4.47,1.59,4.73,3.9.24,2.17-1.24,3.38-3.31,3.57-.58.05-2.67-.23-3.11-.54-.28-.19-.73-2.36-.63-2.68.1-.32.72-.33.78-.25.03.04.04.39.13.58.61,1.31,1.44,2.13,3.01,1.96,1.09-.12,1.6-1.31,1.11-2.22-.51-.95-2.37-1.34-3.27-2-1.22-.9-1.84-2.4-.94-3.78,1.2-1.85,3.7-1.4,5.58-1.2h0Z"/>
    <path d="M147.6,18.14c-.63.07-1.61-.18-2.15.18-.6.39-.58,1.78-1.3,1.89-.36.05-.24-.15-.24-.4-.01-.56-.04-1.2,0-1.75.01-.18.13-1.14.16-1.19.01-.02.44-.03.54,0,.11.02.09.24.13.28.29.22,6.54.14,7.27.05.46-.05.7-.44,1.19-.33-.01,1.07-.04,2.13.16,3.18-1.13.27-.82-.62-1.31-1.33-.61-.88-1.61-.51-2.54-.58v7.4c0,.13.35.52.52.6.35.17,1.05.08,1.09.12.03.03.04.8,0,.8h-5.13s-.03-.77,0-.8c.04-.04.81.09,1.19-.17.14-.1.42-.59.42-.7v-7.23h0Z"/>
    <path d="M193.17,17.35s0,.6-.02.62c-.32.25-.98-.2-1.11.74-.14,1.13-.14,4.26,0,5.39.37,2.86,4.1,2.86,4.47,0,.21-1.66-.14-3.69.02-5.39-.14-.75-1.05-.55-1.28-.73-.05-.05.02-.46,0-.62h3.12c.18,0,.32.58.25.63-.09.06-.96.15-1.11.35-.04.05-.16.72-.18.86-.32,3.34,1.23,8.44-4.1,8.02-4.14-.33-2.71-5.74-2.96-8.51-.02-.22-.16-.35-.34-.48-.5-.36-.96.02-.78-.88.53.1,3.85-.13,4.01,0h0Z"/>
    <path d="M210.17,18.14c-1.93-.16-2.12.13-2.58,1.81-.07.27-.68.06-.61-.26.32-.64-.05-2.13.3-2.66.21-.35.48.25.5.27.27.19,6.04.12,6.43.01.11-.03.77-.55.77-.05v2.63c-.73.13-.64-.53-.86-.99-.48-1.07-1.14-.71-2.19-.76v7.87c0,.07.34.29.46.33.64.2.94-.24.82.71h-4.33c-.16-.97.27-.48.93-.75.14-.06.36-.34.36-.45v-7.71Z"/>
    <path d="M205.02,17.52l.18,1.65c-.36,1.85-.73-.49-1.3-.95-1.35-1.11-2.94.4-2.1,1.93.62,1.15,2.73,1.39,3.49,2.9.84,1.7-.18,3.88-2.12,4.13-.7.09-2.39.02-2.96-.38-.14-.11-.36-1.79-.39-2.15-.05-.55.45-.7.61-.27.3.86.82,1.97,1.84,2.15,1.39.24,1.89-.86,1.62-2.08-.34-1.44-3.71-1.77-3.83-4.32-.12-2.69,2.82-3.47,4.97-2.61Z"/>
    <path d="M230.07,17.35s.02.55-.04.62c-.09.15-.98.05-1.09.74.14,2.27-.21,4.77-.02,7,.04.47.18.54.61.67.52.15.61-.18.53.67h-4.01c-.07-.89,0-.53.55-.64.55-.11.53-.4.57-.86.12-1.67.18-5.23-.02-6.84-.12-.94-.78-.49-1.11-.74-.05-.05.02-.46,0-.62.53.1,3.85-.13,4.01,0Z"/>
    <path d="M134.6,36.51c.07.26.54.19.64.25.02.01.02.45,0,.47-.07.06-1.7.06-1.77,0-.02-.01-.01-.46,0-.47.07-.04.33.01.48-.08.3-.18.12-.92.16-1.28.09-.82.32-2.03.17-2.85-.02-.11-.99-.22-.49-.49.19-.11,1.32-.14,1.43-.06.15.11,1.06,3.08,1.38,3.48.2,0,1.15-3.05,1.44-3.35.3-.31,1.1-.1,1.53-.15.11.42-.44.43-.56.63-.14.23-.13,3.11-.06,3.57.11.82.37.44.63.57.02.01.02.46,0,.48-.08.07-2.01.07-2.09,0-.02-.01-.02-.46,0-.48.07-.04.48.03.48,0v-3.18c-.23-.04-.21.27-.28.44-.43,1.07-.81,2.16-1.24,3.22-.27.04-.32-.2-.41-.39-.42-.9-.67-1.98-1.07-2.92-.1-.24.1-.43-.36-.35.14.78-.19,2.27,0,2.94h0Z" fill="#020202"/>
    <path d="M100.39,32.32c-1.5.29-1.29,4.24-.03,4.43.15.02.83-.02.96-.07,1.28-.49.96-4.72-.93-4.36h0ZM101.87,36.91c-.42.33,1.43,1.09,1.45,1.19.02.11.06.39-.09.4-.37.01-.76-.05-1.11-.17-.63-.21-1.09-.82-1.54-1.02-.31-.14-.65-.07-1.02-.26-1.51-.8-1.72-2.91-.74-4.19.61-.81,1.17-.96,2.17-.88,2.21.17,2.81,3.01,1.52,4.54-.27.32-.51.29-.64.4h0Z" fill="#010101"/>
    <path d="M184.45,32.65c-.18-.18-.84-.31-1-.04-.11.15-.14,1.85-.07,1.92.02.03.71.02.86-.02.5-.16.55-1.52.21-1.85ZM184.41,31.98c.98.16,1.46,1.01,1.18,1.96-.25.81-1.19.2-.27,1.75.27.45.53.69.86,1.06.14.16.3.21.23.48-.78.09-1.28-.09-1.73-.74-.3-.43-.46-1.39-1.07-1.49-.36-.06-.23.15-.25.4,0,.3-.02,1.17.2,1.33.12.08.37-.01.45.02.04.01.02.46,0,.48-.07.07-2,.07-2.09,0-.02-.02-.02-.46,0-.48.07-.04.48.03.48,0v-4.29s-.41.04-.48,0c-.02-.01-.02-.48,0-.48.71,0,1.85-.11,2.5,0h0Z" fill="#020202"/>
    <path d="M240.97,35.32v-2.63c0-.22-.57-.2-.64-.25-.02-.01-.04-.45-.02-.47.07-.06,1.71-.06,1.78,0,.02.02.02.47,0,.48-.11.05-.64-.09-.64.4v4.37l-.59-.15-2.78-3.67v2.94c0,.5.87.32.8.87h-1.93c.04-.6.59-.32.64-1.02.05-.54.09-3.12-.02-3.49-.11-.33-.5-.19-.62-.26-.02-.01-.02-.45,0-.47.05-.05,1.19-.05,1.37.15.91,1.03,1.62,2.26,2.64,3.19Z" fill="#010101"/>
    <path d="M191.08,36.51c.05.2,1.12.37.64.64-.2.11-1.71.13-1.76.08-.02-.01-.02-.46,0-.47.09-.05.43.03.57-.15.11-.15.12-3.34.07-3.75-.05-.39-1.28-.65-.55-.85.3-.09,1.03-.07,1.28.13l2.64,3.35v-2.78c0-.21-1.09-.28-.73-.72h1.85c.14.39-.64.57-.64.72v4.53c-.32.05-.45-.04-.66-.23-.94-.85-1.66-2.61-2.71-3.43.12.78-.2,2.26,0,2.94h0Z" fill="#060606"/>
    <path d="M234.5,32.66c-.12-.11-.68-.35-.86-.36-1.91-.14-1.71,4.98.3,4.59,1.43-.28,1.37-3.47.55-4.23ZM233.06,32.02c3.92-.69,3.87,4.66,1.37,5.18-1.71.36-3.03-.61-3.23-2.31-.12-1.1.7-2.66,1.85-2.86Z"/>
    <path d="M210.76,36.54c.84-.92.53-4.5-1.12-4.22-1.53.26-1.46,3.39-.55,4.22.46.42,1.23.48,1.68,0ZM209.16,32.01c2.21-.46,3.35,1.18,3.08,3.21-.34,2.5-3.99,2.81-4.76.29-.39-1.3.2-3.19,1.68-3.5Z"/>
    <path d="M149.84,37.22l-.56-.17-2.73-3.65c-.19.49-.06,3.08.24,3.27.15.09.41.04.48.08.02.01.02.45,0,.47-.07.06-1.92.08-1.92-.24,0-.2.52-.2.6-.27.25-.23.26-3.05.2-3.55-.09-.83-.49-.52-.8-.71-.02-.01-.02-.45,0-.47.05-.04,1.34-.02,1.42.03.83,1.21,1.72,2.42,2.76,3.47v-2.3s-.14-.68-.17-.71c-.05-.06-.48.02-.64,0,.02-.13-.03-.45,0-.48.07-.06,1.7-.06,1.77,0,.02.01.02.46,0,.48-.08.05-.39-.06-.47,0-.05.04.01.51-.02.7-.02.15-.15.29-.15.33v3.74h0Z" fill="#020202"/>
    <path d="M200.71,34.68c.12.41-.45.38-.5.58-.09.35.12,1.65,0,1.79-2.07.64-4.56-.03-4.44-2.57.09-2.11,1.87-2.72,3.73-2.52.96.1.71.85.73,1.6l-.89-.95c-2.87-1.63-3.33,4.03-.94,4.29.87.1,1.07-.79.84-1.49-.14-.44-.89-.21-.77-.74h2.25Z" fill="#010101"/>
    <path d="M106.21,31.98c.05.51-.57.39-.64.87-.07.49-.07,2.18.01,2.7.24,1.59,2.2,1.67,2.4-.31.04-.42.07-2.22-.02-2.53-.1-.31-.62-.21-.78-.5,0-.38,1.6-.21,1.92-.24.09.46-.52.43-.62.74-.17.52.04,1.85-.02,2.52-.14,1.53-.89,2.22-2.48,1.98-.5-.07-1.37-.86-1.37-1.34v-3.42s-.8.05-.64-.48h2.25,0Z" fill="#040404"/>
    <path d="M176.79,32.45s-.39.05-.56-.16c-.15-.1.09-.28.18-.3.53-.14,1.4.07,1.99-.02.05.51-.58.39-.65.87-.1.63-.06,3.12.37,3.54.39.4,1.34.42,1.73-.03.37-.42.45-3.14.3-3.65-.11-.31-.62-.21-.78-.5-.02-.35,1.93-.28,1.93-.16-.02.4-.53.36-.62.66-.2.59.07,2.06-.04,2.83-.2,1.42-1.37,2.03-2.73,1.61-.44-.14-1.12-1.05-1.12-1.44,0-.45.13-3.15,0-3.26Z" fill="#030303"/>
    <path d="M217.87,32.45c-.05-.03-.41.05-.57-.16-.16-.1.09-.28.18-.3.53-.14,1.41.07,2-.02.05.51-.57.39-.66.87-.07.52-.05,2,.02,2.53.23,1.67,2.21,1.88,2.41.02.04-.45.07-2.36-.04-2.69-.09-.3-.61-.21-.77-.49-.02-.36,1.93-.29,1.93-.16-.02.4-.53.36-.62.66-.34,1.01.36,2.56-.37,3.77-.62,1.04-2.57,1.06-3.16,0-.07-.11-.34-.88-.34-.93,0-.43.11-3,0-3.1Z" fill="#020202"/>
    <path d="M152.89,32.45v3.42c0,.35.72.81,1.08.85,1.39.15,1.4-2.33,1.32-3.23-.01-.16-.13-.99-.17-1.03-.06-.06-.48.02-.64,0,.02-.13-.02-.45,0-.48.07-.06,1.93-.08,1.92.24,0,.22-.61.17-.65.34-.41,2.12.73,5.16-2.63,4.66-2.06-.31-.76-4.32-1.37-4.69-.15-.09-.41-.04-.48-.08-.02-.01-.02-.45,0-.47.07-.06,1.8-.04,1.99.02.09.02.33.2.18.3l-.56.16h0Z" fill="#020202"/>
    <path d="M142.46,33.57c-.41-.05-.25.02-.33.22-.08.19-.39,1.13-.31,1.21h.96l-.32-1.43h0ZM142.94,37.22c-.2-.47.31-.47.33-.57.02-.08-.14-1.13-.17-1.17-.05-.06-1.33-.08-1.52.15-.12.14-.33,1.03-.23,1.11.03.02.99.13.47.41-.41.22-1.28,0-1.77.08-.01-.5.53-.46.77-.91.42-.78.82-2.24,1.16-3.15.09-.25.28-1.14.32-1.2.02-.04.5-.04.56.16.53,1.21.77,2.75,1.34,3.92.23.47.37.64.83.92,0,.39-1.75.2-2.08.24h0Z" fill="#040404"/>
    <path d="M163.16,35l-.4-1.43c-.39.36-.45.94-.56,1.43h.96ZM165.4,37.22c-.33-.06-1.98.09-2.09,0-.2-.17.05-.67.48-.48l-.42-1.28c-.96-.13-1.86.02-1.68,1.19,0,.05,1.14.35.39.55-.26.07-1.67.09-1.66-.22.2-.24.54-.29.71-.56.4-.62,1.39-4.36,1.77-4.45.26-.06.34.21.41.38.49,1.17.8,2.96,1.39,4.02.22.39.69.38.68.84Z" fill="#040404"/>
    <path d="M160.43,31.98c-.14.33.29,1.27-.08,1.43-.37.16-.22-.68-.56-.88-.32-.19-.92-.03-1.29-.08v1.91c.32-.03.73.07,1.02-.02.4-.12.04-.75.58-.62v1.75c-.54.13-.18-.5-.58-.62-.29-.09-.71.01-1.02-.02.07.43-.17,1.63.16,1.83.3.18.6-.14.48.55h-2.25c-.05-.51.57-.39.64-.87.06-.42.04-3.55-.08-3.74-.13-.21-.67-.21-.57-.63h3.53Z" fill="#030303"/>
    <path d="M111.82,35l-.64-1.59-.48,1.59h1.12,0ZM111.82,31.98l1.47,4.51c.07.32.49.2.61.27.02.01.02.45,0,.47-.07.06-1.73.03-1.93-.08-.45-.24.37-.28.33-.63-.01-.13-.3-1-.34-1.03-.07-.05-1.34-.05-1.41,0-.05.04-.42,1.19-.34,1.25h.64c-.02.13.02.46,0,.48-.07.06-1.7.06-1.77,0-.02-.01-.02-.46,0-.47.14-.08.41.1.61-.27.34-.62,1.44-4.36,1.65-4.49.09-.05.32,0,.46-.01h0Z" fill="#040404"/>
    <path d="M224.77,32.45c-.05-.04-.82-.02-.98.07-.39.24-.09,1.23-.8.8.21-.49.18-.99.18-1.51,1.32.25,2.83.26,4.15,0-.04.27.07,1.51,0,1.59-.32.35-.57-.87-.66-.93-.14-.11-.7.02-.94-.02v4.29s.53-.03.66,0c-.02.1.02.48,0,.48h-2.25c-.29-.64.64-.45.64-.71,0-.56.12-3.91,0-4.06h0Z" fill="#030303"/>
    <path d="M172.78,32.45c-.87-.12-.89.15-1.25.75-.07.13-.12.46-.36.21-.07-.08.05-1.32,0-1.59,1.32.25,2.85.26,4.17,0,0,.34.01.69,0,1.03-.01.31.17.56-.24.56-.14,0-.11-.71-.4-.88-.26-.16-.67-.05-.97-.07v4.06c0,.12,1.3.5.54.7-.19.05-2.07.09-2.15.02-.02-.02.02-.35,0-.48.11-.02.64.03.64,0v-4.29h0Z" fill="#020202"/>
    <path d="M128.02,37.22c-.14-.5.62-.4.65-.57.06-.33.03-1.52-.04-1.86-.06-.28-.97-2-1.17-2.18-.21-.2-.46-.12-.55-.17-.02-.01-.02-.45,0-.47.1-.08,1.75.06,2.09,0,.15.4-.51.44-.48.55.17.55.7,1.22.8,1.83.33-.09,1.06-1.85.96-1.91-.43.19-.68-.31-.48-.48.07-.06,1.77-.08,1.76.24-.23.27-.55.19-.78.49-.17.21-1.09,2.13-1.13,2.38-.05.33-.09,1.44.15,1.59.3.18.6-.14.48.55h-2.25,0Z" fill="#020202"/>
    <path d="M123.53,32.45s-.8-.02-.97.07c-.29.17-.26.88-.4.88-.41,0-.23-.25-.24-.56-.01-.34,0-.69,0-1.03,1.32.25,2.85.26,4.17,0-.05.28.08,1.5,0,1.59-.31.37-.48-.78-.63-.88-.23-.16-.69-.04-.97-.07v4.06c0,.26.92.07.64.71h-2.25c-.28-.64.64-.45.64-.71,0-.56.14-3.91,0-4.06h0Z" fill="#020202"/>
    <path d="M169.9,33.57c-.3-1.88-2.69-1.56-2.89.23-.12,1.1,0,2.69,1.29,3.04,1.16.31,1.66-1.18,1.85-1.2.34-.03.11.42.07.55-.12.44-.2.95-.72,1.04-2.27.37-3.87-.72-3.61-3.11.1-.89,1.12-2,2.02-2.13.33-.05,1.63-.07,1.89.02.44.14.68,1.38.11,1.57Z" fill="#010101"/>
    <path d="M206.16,31.98c-.11.24.36,1.44-.09,1.43-.11,0-.77-1.85-1.53-.88-1.07,1.33,1.84,1.55,1.94,3.03.14,2.07-2.8,1.97-3.03,1.25-.05-.16-.05-1.12-.02-1.17.23-.29.34.21.39.31.27.49.91,1.52,1.53.73,1.03-1.3-1.85-1.76-1.93-3.21-.07-1.49,1.59-1.64,2.73-1.5h0Z" fill="#010101"/>
    <path d="M245.61,31.98c.05.06.3,1.43-.07,1.42-.11,0-.77-1.85-1.53-.88-.94,1.19,1.32,1.62,1.75,2.42.45.8.07,2.04-.89,2.25-.39.09-1.35.09-1.71-.12-.27-.16-.36-1.33-.25-1.44.23-.29.34.22.39.31.25.49.91,1.51,1.53.73.89-1.12-1.14-1.75-1.59-2.42-.55-.84-.3-2.02.73-2.25.23-.05,1.59-.09,1.64-.03h0Z" fill="#010101"/>
    <path d="M214.82,32.45v4.29l1.12-.08.96-1.03c.09.26-.12,1.59-.41,1.59h-3.21s-.29-.18-.16-.32c.14-.17.41-.1.52-.19.3-.22.32-3.81.05-4.17-.12-.19-.39-.05-.48-.09-.04-.01-.04-.46,0-.48.07-.06,1.78-.03,1.98.02.09.02.34.2.18.3l-.55.16h0Z" fill="#040404"/>
    <path d="M116.63,31.98c.05.51-.57.39-.64.87-.06.41-.07,3.36.02,3.64.11.35.84.32,1.16.23.44-.13.62-1.07.83-1.08.41-.02,0,1.59-.08,1.59h-3.53s.01-.38,0-.48c.11-.02.64.03.64,0v-4.29s-.8.05-.64-.48h2.25,0Z" fill="#040404"/>
    <path d="M230.39,31.98c.11.42-.45.43-.57.64-.12.19-.14,3.33-.09,3.74.07.49.7.36.64.87h-2.25c-.16-.37.64-.57.64-.71v-4.06s-.78.05-.64-.48h2.26Z" fill="#020202"/>
    <path d="M188.51,32.45v4.29s.64,0,.62.24c0,.33-1.8.28-2.14.24-.16-.02-.12-.26-.11-.4.04-.15.45-.03.59-.23.11-.16.14-3.59.05-3.89-.11-.33-.5-.19-.62-.26-.02-.01-.02-.45,0-.47.07-.06,1.8-.03,1.98.02.09.02.34.2.18.3l-.55.16h0Z" fill="#030303"/>
    <path d="M120.48,32.45v4.29s.65,0,.64.24c-.01.33-1.81.28-2.15.24-.15-.02-.12-.26-.09-.4.03-.15.43-.03.58-.23.12-.16.14-3.59.05-3.89-.1-.33-.5-.19-.62-.26-.02-.01-.02-.45,0-.47.07-.06,1.8-.03,1.99.02.09.02.33.2.18.3l-.56.16h0Z" fill="#030303"/>
    <path d="M238.25,17.35c.27.82.12,1.69.16,2.54-.75.14-.68-.69-1-1.17-.62-.91-1.75-.5-2.69-.58v3.5h1.98c.21-.05.36-1.03.57-1.2.23-.17.5.09.5.16v3.1c-.94.17-.55-.31-.84-.84-.37-.67-1.59-.36-2.21-.43v3.42s.21.24.16.4h2.48c.68,0,.86-2.13,1.84-1.75-.11.37-.45,2.54-.71,2.54h-6.83c.04-.15-.04-.61,0-.64.11-.08.96.2,1.21-.32.18-2.5.02-5.04.09-7.56-.07-.48-.73-.51-1.14-.56-.05-.18.07-.63.25-.63h6.19Z"/>
    <path d="M246.43,25.3c-.55.91-1.21,1.75-2.35,1.9-.55.07-2.73,0-3.05-.46-.05-.09-.37-2-.37-2.17,0-.37.52-.5.62-.38.04.04.2.7.3.9,1.11,2.16,3.62,1.99,3.23-.5-.21-1.42-3.53-2.06-3.83-3.99-.46-3.01,2.51-3.99,4.94-3.08-.05.42.5,2.25-.05,2.37-.41.09-.48-.74-.61-.99-.7-1.36-2.57-1.39-2.82.16-.27,1.65,1.78,2.11,2.78,2.9.52.41.84.9,1.19,1.43v1.91h.02Z"/>
    <path d="M28.56,5.42c.28-.19.64-.17.96-.16l-.16.48c-.26.08-.81.12-.97.23-.22.15-.07.56-.23.56-.52,0-.05-.6-.32-.8l-.08.79c-.55.11-.52-.12-.57-.64-.08-.76.9-.44,1.29-.16.14-.1-.08-.21.08-.32Z" fill="#606060"/>
    <path d="M25.35,3.51c.06-.03.24.06.3-.02.08-.11-.07-.43.11-.46.47-.08,1.15.05,1.68-.15l-.16.32c-.35.74-1.5-.17-1.28.8-.54-.3-.74.21-1.28,0,.08-.27.41-.37.64-.48h0Z" fill="#5a5a5a"/>
    <path d="M34.01,15.12c.41.08.43.05.8.32.26.19.39.16.16.48-.47-.03-.54.14-.48-.48-.33.24-.7.1-1.02.15-.19.03.01.39-.26.32.09-.3-.13-.58-.16-.79.35-.24.6.06.8.08.15.01.16-.08.17-.08h0Z" fill="#606060"/>
    <path d="M5.62,19.89c.19.64.9.57.64,1.43-.53.13-.13-.41-.56-.32-.12.03-.03.5-.56.32-.06-.42.5-.67.48-.71-.06-.18-.37-.42-.32-.72.11,0,.21,0,.32,0Z" fill="#343434"/>
    <path d="M4.98,19.89c0,.46-.19.82,0,1.27-.56-.15-.96-.57-1.6-.48v-.32c.64.32,1.37.14,1.44-.64.01,0,.02-.2.16-.16,0,.1,0,.21,0,.32h0Z" fill="#343434"/>
    <path d="M20.22,1.29c-.14.18-.39.25-.49.39-.15.2-.08.7-.39.57-.31-.14-.24-.34-.13-.59.14-.32.72-.25.37-.68.24.07.51.05.64.32Z" fill="#5a5a5a"/>
    <path d="M21.5,1.77c-.06.26-.16.52-.16.79-.42.11-.38-.25-.33-.57.05-.31.34-.26.49-.55-.01.1.02.23,0,.32Z" fill="#343434"/>
    <path d="M2.73,19.89c.06.23.02.59.14.86l-.14.09c-.08-.25-.17-.59-.32-.8.18-.15.23-.11.32-.16-.07-.27-.39-.1-.32-.24.43-.54.36-.85.96-.16-.15.31-.46.3-.64.4Z" fill="#606060"/>
    <path d="M30,20.53v.16l-.48-.08c0-.15.33-.07.48-.08h0Z" fill="#343434"/>
    <path d="M25.35,3.35l-.15-.1.15-.21c-.02.09.02.22,0,.32Z" fill="#5a5a5a"/>
    <path d="M13.16.81c.02.2.35.36-.08.64l-.09-.3c-.07-.09-1.16.47-1.27.7-.2.41.87.1.96.48-1.06,0-.47.46-.64.71-.11.15-1.26-.08-.32-.4-.13-.41-.32-.31-.48-.4-.09-.05.44-.4.32-.63-.35.04-1.02.03-.96.47l-.16-.32-.48.48c-.44-1.32.48-.76,1.48-.99.08-.02.84-.3.88-.33.07-.05.01-.28.12-.27.29,0,.4.44.72.16h0Z" fill="#5a5a5a"/>
    <path d="M9.31,4.47c.31.32.13-.27.48-.32-.17,1.4.98.1,1.29,1.19-.24.02-.35.4-.4.4-.32,0-.46-.39-.72-.54-.14-.08-.29.2-.4-.26-.4-.13-.17.36-.24.48-.61-.13-.8-.24-1.21.32l.08-.56c-.52-.35-.52.31-.88.55l-.4-.4c-.02-.06,1.05-.39.16-.88.19-.02.3-.16.32-.16.05,0,.11,0,.16,0-.17.46,1.14.8,1.28.64,0-.16,0-.32,0-.48,0-.05,0-.11,0-.16h.16c.05.01.12-.02.16,0l.16.16h0Z" fill="#5a5a5a"/>
    <path d="M.48,15.76s-.18-.01-.17-.39c.02-.91.57-.75.93-1.08.21-.19.1-.49.61-.59.37-.08.52-.04.24.32-.34.13-.42.88-.53,1.07-.02.03-.48.29-.52.52-.14-.49-.69-.54-.56.16H.48Z" fill="#606060"/>
    <path d="M8.99,3.35c.02-.05.37-.14.48-.16-.12-.46-.29-.45.24-.64.08-.03.07.21.12.26.16.15.87.49.76-.1.07-.01.15-.01.22,0l.42.48c-.27-.01-.49.32-.72.32-.29,0-.4-.4-.72-.32.34.69.08.34-.31.57-.11.07-.23.27-.33.39l-.08-.16h-.16l-.08.16s-.18-.06-.17-.23c0-.12.28-.05.33-.2.04-.13-.03-.3,0-.36h0Z" fill="#4c4c4c"/>
    <path d="M8.34,7.81c.27.64.09.5-.24.96-.8-.01.1-.91.07-1.2-.02-.2-.52-.13-.47-.39h1.28c.02.22-.16.43-.16.63,0,.07.13.22.16.32-.12-.04-.42.04-.48,0-.03-.02.04-.25,0-.32l.16-.08c.03-.13-.11-.07-.24-.08l-.08.16h0Z" fill="#5a5a5a"/>
    <path d="M24.23,5.74c.1-.02.22,0,.32,0,0,.1.01.21,0,.32-.03.33-.19.56,0,.95-1.08-.42-.3.21-.96.64-.16-.38-.06-1.18.14-1.5.14-.21.62.1.5-.41Z" fill="#606060"/>
    <path d="M17.81.81c.05.1.72.1.48.48,0,.01-.17-.02-.25.07-.11.11-.44.57-.48.58-.3.04-.84-.38-.87-.65.52.11.66-.46,1.12-.48h0Z" fill="#606060"/>
    <path d="M32.41,14.81l-.48-.16v.48s-.28-.16-.39-.14c-.27.05-.14.5-.41.46l-.16-.79c.21-.04.65.08.78-.02.12-.08.13-.82.26-.78.61.19.51.43.4.95h0Z" fill="#5a5a5a"/>
    <path d="M14.28,2.56c.11-.01.25.04.37,0,.11-.03.16-.63.43-.32.02.02.02.57-.02.62-.05.06-.54-.01-.62.27-.05.2.14.43.14.63,0,.14-.15.21-.15.23-.11,0-.22.01-.32,0,.13-.55.02-.5,0-.8,0-.05,0-.11,0-.16-.01-.2-.06-.45.16-.48h0Z" fill="#5a5a5a"/>
    <path d="M16.04,4.31c.58.46.35.28.71-.1.06-.07.2-.05.23-.08.04-.05-.37-.37.1-.29l.24.64c-.77-.4-.43.27-.64.48-.02.02-.34-.2-.48-.16-.06.06.29.46-.08.63-.37.17-.2-.35-.24-.48l.1-.12c-.01-.29-.14-.32.06-.51Z" fill="#606060"/>
    <path d="M28.35,10.31c-.16.22-.71.54-.68.04l-.24.32-.16-.4c.36-.13.64-.79,1.04-.71.31.06.15.6.04.75Z" fill="#5a5a5a"/>
    <path d="M17.81,11.94l.16.79c-.47,0-.83-.19-1.28,0-.15-.72.63-.66,1.12-.79Z" fill="#5a5a5a"/>
    <path d="M3.05,12.89s.15.03.2-.01c.15-.12.1-.42.36-.3.55.24.01.56-.15.81-.22.35,0,.49-.73.62-.11-.28.11-.37.16-.48.12-.28.14-.61.16-.64Z" fill="#5a5a5a"/>
    <path d="M3.05,9.56s.1.04.09.08c-.04.21-.39.51-.25.87-.22-.15-.42-.11-.64-.16-.09-.02-.14-.12-.32,0-.16-.59.61-.83,1.12-.79Z" fill="#606060"/>
    <path d="M13.16.49c.05-.21,1.35-.4,1.44-.32.03.03-.02.23,0,.32-.06,0-.77.21-.81.24-.16.11-.09.39-.23.4l-.4-.64h0Z" fill="#5a5a5a"/>
    <path d="M30.16,14.49c.09.77-.03.5-.35.68-.42.24-.39.45-.53-.05l-.24.32c-.22-.75.51-.89,1.12-.95h0Z" fill="#5a5a5a"/>
    <path d="M10.91,7.01s.49.17.64.16c.13.52-.31.22-.47.33-.03.02.11.23.07.31-.15.29-1.03.04-1.01-.4,0-.05.12-.05.12-.08.63.46.57-.26.64-.32h0Z" fill="#606060"/>
    <path d="M20.38,4.95s-.04.22.02.28c.02.03.42-.05.72.01.29.06.45-.1.38.34-.36-.12-.83-.13-1.17.03-.31.14-.16.46-.43.45.06-.2.12-1.07.16-1.11.01-.01.31-.01.32,0Z" fill="#606060"/>
    <path d="M17.01,7.96c.11.21,1.36-.21,1.12.24-.16.31-.84.19-1.05.56-.42.12-.15-.38-.24-.48l.15-.09c0-.07.03-.16,0-.23h0Z" fill="#5a5a5a"/>
    <path d="M7.38,13.69c.15-.14.29-.74.34-.79.03-.02.6-.01.69,0,.13,0,.21.57.26.79-.34.08-.41-.32-.72-.32-.12,0-.05.19-.13.27-.1.09-.25.04-.27.05h-.16Z" fill="#606060"/>
    <path d="M4.81,19.73c-.07.78-.8.95-1.44.64v-.32c.27-.03.6.06.86,0,.04,0,.06-.19.58-.32Z" fill="#606060"/>
    <path d="M28.88,14.01l-1.28.16.16-.79c.39.12,1.16.07,1.12.64h0Z" fill="#5a5a5a"/>
    <path d="M22.14,4.94s.64.31.63.4c-.2.38-.36.69-.88.56-.24-.06-.24-.19-.08-.39.19-.24.23-.43.32-.56h0Z" fill="#5a5a5a"/>
    <path d="M3.53,10.99c.04.29.02.34-.17.54-.18.18-.9.91-1.11.73.21-.48.52-1,1.12-.96l.16-.32Z" fill="#5a5a5a"/>
    <path d="M12.84,4.47l-.16.79c-.2-.23-.62.03-.63,0-.07-.14.15-.56-.32-.48.16-.46.72-.3,1.12-.31Z" fill="#4c4c4c"/>
    <path d="M24.71,10.67v.64c-.6-.07-1.3.3-1.12-.48l1.12-.16h0Z" fill="#606060"/>
    <path d="M7.86,9.24c.1.57-.23.76-.4.16-.1.38-.74.64-1.04.24-.1-.31.58-.33.77-.35.23-.02.45-.08.68-.04h0Z" fill="#606060"/>
    <path d="M29.52,7.96c.03.3.09.66.16.95h-1.12c-.05-.24.17-.1.31-.28.04-.06,0-.18.01-.2.06-.04.36.03.48,0-.14-.37-.35-.53.16-.48h0Z" fill="#5a5a5a"/>
    <path d="M11.25,14.79c.11.08.45-.19.62-.15v.63c-.08.09-.96-.35-1.05-.47-.17-.23.09-.48.17-.48.14,0,.21.43.26.46h0Z" fill="#606060"/>
    <path d="M5.14,8.6c.02.11.22.28.16.48-.35-.07-1.02.34-1.12-.09-.03-.12.16-.32.16-.39h.8Z" fill="#5a5a5a"/>
    <path d="M8.83,7.81c.22-.23.8-.53.96-.08.11.29-.2.2-.27.28-.16.2.12.68-.38.33-.03-.02-.05-.18-.15-.21-.03-.09-.16-.24-.16-.32Z" fill="#606060"/>
    <path d="M31.12,7.65c.17.65-.19.56-.27.67-.18.23.2.72-.36.6.19-.7-.35-1.24.64-1.27Z" fill="#5a5a5a"/>
    <path d="M14.6,4.78s.15.07.15.22c0,.58-.2.88-.79.73.01-.1-.02-.46,0-.48.02-.02.18.04.27-.05.13-.13.16-.37.38-.43h0Z" fill="#5a5a5a"/>
    <path d="M6.42,10.04s.02.59-.01.62c-.35.27-1.16.19-.95-.46.2-.03.39.16.55.17.07,0,.14-.65.41-.33h0Z" fill="#4c4c4c"/>
    <path d="M26.63,8.92c-.16.1-.72.1-.96.48.02-.19.1-.85.17-.95.05-.06,1.24.2.79.47h0Z" fill="#5a5a5a"/>
    <path d="M32.73,17.03c.07.27-.32.06-.33.25-.02.26.24.56.17.86h-.8c-.13-.53.34-.22.47-.32.07-.05-.02-.75.01-.95l.48.16Z" fill="#4c4c4c"/>
    <path d="M15.4,5.1c-.16.3-.14.63-.25.94-.04.12-.21.51-.39.49-.11-.21.28-1.81.64-1.43h0Z" fill="#5a5a5a"/>
    <path d="M23.42,2.88c-.06.1-.11.21-.16.32-.11.24-.18.93-.48.64-.03-.03-.02-.65,0-.79,0-.03.19-.19.16-.32.16.06.3.17.48.16h0Z" fill="#606060"/>
    <path d="M3.05,14.81c-.21.34-.06,1-.64.95.16-.51-.15-1.07.64-.95Z" fill="#4c4c4c"/>
    <path d="M13.16,10.35c.06.06-.24.33-.14.46.02.02.62.04.3.34-.05.05-.72-.1-.88.16-.02-.22.23-.57.36-.75.11-.15,0-.28.36-.2h0Z" fill="#606060"/>
    <path d="M5.62,17.35c.2.2-.67,1.44-.8.32.14,0,.32.04.44-.04.04-.03.07-.57.36-.28Z" fill="#5a5a5a"/>
    <path d="M26.15,4.94c-.32.06-.52-.14-.77-.27-.22-.11-.44.09-.35-.36.42.05.95.21,1.12.63Z" fill="#5a5a5a"/>
    <path d="M28.71,11.94s-.24-.04-.29.03c-.13.14.43.69-.1.61-.73-.44.34-1.03.4-.95.02.02.01.31,0,.31h0Z" fill="#4c4c4c"/>
    <path d="M10.59,8.12c.14.41-.14.41-.19.49-.09.13-.24.5-.45.3-.1-.09.25-.92.64-.79Z" fill="#606060"/>
    <path d="M24.06,12.74s-.44.07-.3-.21l.62-1.06c-.11.26-.21,1.13-.32,1.27Z" fill="#4c4c4c"/>
    <path d="M7.38,13.69h.16c-.47.51-.2.21-.64.48-.09.05-.02.85-.48.64-.21-.58.46-.59.48-.64.1-.18-.25-.62.48-.48Z" fill="#5a5a5a"/>
    <path d="M12.03,14.01s.07.29-.1.32c-.11.02-.52.02-.54,0-.41-.41.61-.29.64-.32.06-.05-.11-.78.64.08,0,.14-.54-.19-.64-.08Z" fill="#4c4c4c"/>
    <path d="M20.9,1.6c0,.11-.09.2-.2.2s-.2-.09-.2-.2.09-.2.2-.2.2.09.2.2Z" fill="#5a5a5a"/>
    <path d="M30.32,20.05c-.08.17-.27-.23-.16-.48.08-.17.27.23.16.48Z" fill="#343434"/>
    <path d="M29.68,20.37c.12-.22-.1-.42-.16-.32-.11.22.1.42.16.32ZM30.32,20.05c.11-.24-.08-.65-.16-.48-.11.24.08.65.16.48ZM1.77,18.3c-.04.08.05.29-.16.4l.08.08c.42-.22.16-.64.08-.48h0ZM5.62,17.35c-.28-.29-.32.25-.36.28-.12.08-.3.04-.44.04.13,1.12,1-.12.8-.32ZM32.73,17.03l-.48-.16c-.04.2.06.89-.01.95-.13.1-.6-.2-.47.32h.8c.07-.29-.2-.6-.17-.86.02-.19.41.03.33-.25ZM3.05,14.81c-.79-.12-.48.45-.64.95.58.04.43-.62.64-.95ZM30.16,14.49c-.61.07-1.34.21-1.12.95l.24-.32c.15.5.11.29.53.05.31-.18.44.09.35-.68h0ZM11.25,14.79c-.05-.04-.12-.46-.26-.46-.08,0-.33.25-.16.48.09.12.97.56,1.04.47v-.64c-.17-.04-.51.23-.62.15h0ZM32.41,14.81c.11-.52.2-.76-.4-.95-.13-.04-.14.69-.26.78-.14.09-.57-.02-.78.02l.16.79c.28.04.14-.41.42-.46.11-.02.37.17.39.14v-.48l.48.16h0ZM12.03,14.01s-1.05-.1-.64.32c.02.02.43.02.54,0,.17-.03.08-.3.1-.32.1-.11.65.23.64.08-.75-.86-.58-.13-.64-.08ZM28.88,14.01c.04-.56-.73-.52-1.12-.64l-.16.79,1.28-.16h0ZM7.38,13.69c-.73-.15-.39.3-.48.48-.02.04-.69.06-.48.64.46.22.4-.58.48-.64.45-.27.17.03.64-.48.02-.01.17.03.27-.05.09-.08,0-.27.13-.27.31,0,.38.4.72.32-.05-.22-.13-.79-.26-.79-.09,0-.66-.01-.69,0-.06.04-.19.65-.34.79ZM27.92,12.58h-.32v.32l.32-.32h0ZM17.81,11.94c-.49.13-1.27.07-1.12.79.45-.19.82,0,1.28,0l-.16-.79ZM28.71,11.94s.02-.29,0-.31c-.06-.07-1.13.52-.4.95.53.08-.03-.47.1-.61.06-.06.25,0,.29-.02h0ZM24.06,12.74c.11-.14.22-1.01.32-1.27l-.62,1.06c-.14.28.26.26.3.21ZM3.53,10.99l-.16.32c-.61-.04-.91.47-1.12.96.2.18.93-.55,1.11-.73.2-.2.21-.25.17-.54ZM24.71,10.67l-1.12.16c-.18.77.52.41,1.13.48v-.64h0ZM13.16,10.35c-.37-.09-.26.05-.36.2-.13.18-.39.53-.36.75.17-.25.83-.11.88-.16.32-.3-.29-.32-.3-.34-.1-.13.2-.39.14-.46h0ZM30.83,10.64c-.09-.08-.02-.5-.27-.61-.18.12.23.9.27.92.12.09.85.1.93.19.05.05-.26,1.06,0,1.43.16-.17.45,0,.46-.01.09-.18-.12-.45.34-.54-.58-.13-.56-1-.91-1.2-.25-.15-.74-.1-.83-.18h0ZM6.42,10.04c-.27-.32-.34.33-.41.33-.16-.01-.35-.2-.55-.17-.22.65.59.73.94.46.03-.03.04-.6.01-.62h0ZM28.35,10.31c.11-.15.27-.7-.04-.75-.41-.07-.68.59-1.04.71l.16.4.24-.32c-.03.5.51.18.68-.04ZM7.86,9.24c-.23-.03-.45.02-.68.04-.18.02-.87.04-.77.35.3.41.94.14,1.04-.24.17.6.5.41.4-.16h0ZM26.63,8.92c.45-.27-.74-.53-.79-.47-.07.09-.15.76-.17.95.24-.38.8-.38.96-.48h0ZM13.62,8.46s-.72-.02-.86-.02c-.32,0-.26.02-.25.32.49-.07.76.11,1.04.47.31-.13.22-.61.06-.78h0ZM10.59,8.12c-.39-.12-.74.7-.64.79.21.2.36-.17.45-.3.05-.08.34-.08.19-.49ZM12.01,7.98c-.34-.31-.77-.03-.71.46.07.64.3.65-.55.8l.4.47c.37-.42.44-.84.97-1.11-.15-.18-.09-.6-.11-.62h0ZM31.12,7.65c-.98.04-.45.57-.64,1.27.56.12.19-.37.36-.6.09-.11.45-.02.27-.67ZM28.88,8.44s.03.14-.01.2c-.14.18-.35.04-.31.28h1.12c-.07-.29-.13-.66-.16-.95-.02-.21.02-.43,0-.64h-.47s-.17,1.11-.17,1.11h0ZM8.82,7.81c0-.21.18-.41.16-.63h-1.28c-.05.26.45.19.47.39.03.29-.87,1.19-.07,1.2.33-.45.51-.32.24-.96.05,0,.15-.01.16,0,.03.06-.03.29,0,.32.06.04.36-.04.48,0,.1.03.12.2.15.21.5.35.23-.13.38-.33.07-.09.38.01.27-.28-.16-.45-.74-.15-.96.08h0ZM17.01,7.96s-.15-.09-.19-.2c-.08-.2-.34-1.16-.61-.51-.12.3.27.17.37.44.1.26-.04.55-.02.57.06.06.27,0,.29.02.08.09-.18.6.24.47.2-.37.88-.25,1.04-.56.24-.45-1.01-.03-1.12-.24h0ZM10.91,7.01c-.33-.26-.17-.92-.64-.8.1.47-.16.48-.48.71.24.5.55-.17.64-.08.11.12-.12.37-.16.48,0,.02-.12.03-.12.08-.02.44.86.68,1.01.4.04-.08-.1-.29-.07-.31.16-.11.6.2.47-.33-.15.01-.59-.2-.64-.16h0ZM11.83,5.95s-.31-.04-.36-.04c-.36-.03.32,1.06.72.79.09.21-.67.16-.32.47.03.03.61-.14.8,0,.04-.03-.32-.89-.36-.92-.06-.06-.26-.01-.39-.09-.06-.04-.06-.19-.09-.2h0ZM15.4,5.1c-.37-.38-.75,1.22-.64,1.43.17.02.34-.37.39-.49.12-.31.09-.64.25-.94h0ZM22.14,4.94c-.09.14-.13.32-.32.56-.16.2-.16.33.08.39.52.13.67-.18.88-.56,0-.09-.61-.43-.63-.4h0ZM20.38,4.95s-.31-.02-.32,0c-.04.04-.1.92-.16,1.11.27.01.11-.31.43-.45.35-.16.81-.15,1.17-.03.07-.45-.09-.28-.38-.34-.3-.06-.69.02-.72-.01-.06-.06,0-.23-.02-.28ZM18.97,5.55s.04-.9-.36-.93l-.24.48c-.3-.44-.52-.25-.72.16l.48.16c-.48.21-1.14-.07-.96.64.05.05,1.31-.6,1.13,0,.25-.36.92-.12.95-.15.3-.3-.24-.31-.28-.34h0ZM12.84,4.47c-.4.01-.96-.14-1.12.31.47-.08.25.34.32.48.01.03.43-.23.63,0l.16-.79ZM26.15,4.94c-.17-.43-.7-.58-1.12-.63-.09.45.13.25.35.36.26.13.45.33.77.27ZM25.03,5.9l.16-.32c-.62.09-.51-.09-.48-.64-.29.3-.72-.29-.64-.63-.79-.09-.22.89-.32.95-.12.08-.9-.15-.8.48l.8-.32v.48c.2.06.37-.14.48-.16.12.51-.36.2-.5.41-.2.32-.3,1.12-.14,1.5.66-.43-.12-1.06.96-.64-.19-.39-.03-.63,0-.95.1.02.24-.02.32,0,.67.2.45.56.69.76.09.08.26.02.27.04.01.01-.19.29-.16.32.13-.02.45.03.48,0,.34-.34-.3-.29-.32-.32-.11-.12,0-1.16-.8-.95h0ZM15.88,4.94c.04.12-.12.64.24.48.36-.16.02-.57.08-.63.13-.04.45.18.48.16.21-.21-.13-.88.64-.48l-.24-.64c-.48-.07-.06.24-.1.29-.03.03-.17.01-.23.08-.36.38-.12.57-.71.1.13-.13.36-.12.32-.32-.26-.02-.87-.06-.96.24-.14.48.37.39.48.71ZM22.11,3.96s-.1-.66-.29-.61c.09.46-.33.25-.47.33-.24.14.02,1.15.62.94-.42-.76.04-.56.13-.66h0ZM18.12,3.36c-1.54.22-.43.27-.33.57.07.21,0,.48.02.7.57-.29.42-.71.31-1.27ZM20.2,3.04s-.45.13-.63,0c-.22.69.34.7.32,1.27l.42-.87c-.06-.1-.08-.35-.11-.39h0ZM18.42,2.12c-.26-.19-1.01.3-.93.76l.8-.16v.48c.33-.21.4-.4.8-.16.06-.39-.33-.51-.58-.7-.06-.04-.05-.19-.09-.21ZM14.28,2.56l-.72-.79c-.19.16-.36.38-.3.64l-.42.15.8.16c.09.21-.67.16-.32.48.07.06.61-.21.8-.16,0,.05,0,.11,0,.16-.94.02-.76.7,0,.8-.02.07-.12.15-.13.24,0,.06.81.39-.03.81v.22s.02.38,0,.48c.59.15.8-.15.79-.73,0-.16-.15-.2-.15-.22-.07-.28-.15-.49-.16-.8,0-.01.15-.09.15-.23,0-.2-.19-.43-.14-.63.07-.28.56-.21.62-.27.04-.05.04-.59.02-.62-.26-.31-.32.29-.43.32-.12.03-.26-.02-.37,0h0ZM20.9,1.6c0-.11-.09-.2-.2-.2s-.2.09-.2.2.09.2.2.2.2-.09.2-.2ZM17.81.01c.2.65.2.47.8.32-.06.67.06.36.23.41.24.06.49.15.73.23.35.43-.23.35-.37.68-.11.25-.17.46.13.59.3.13.24-.36.39-.57.11-.14.35-.21.49-.39.3-.38-.04-.59,0-.64.02-.02.48-.14.53-.13.17.04.31.28.35.29.17.01.15-.53.4-.48-.01.29.13.62.12.9,0,.12-.12.18-.12.21-.15.29-.45.24-.49.55-.05.31-.09.68.33.57,0-.27.1-.53.16-.8l.32-.16c.07.51.21.47.65.32.05.05-.14.21-.16.32-.07.02-.15-.03-.22,0l-.42.48,1.12.32c-.02.15-.03.77,0,.79.3.3.37-.39.48-.64l1.28.48c.08-.26-.17-.51-.17-.7,0-.14.37.04.33-.41.15,0,.47-.19.48-.16.07.16-.16.55.32.48.04.15-.16.15-.16.16l-.16.21.16.1v.16c-.23.11-.57.2-.64.48.54.22.75-.3,1.28,0-.22-.96.93-.06,1.28-.8.72-.04.06.39.05.55-.01.14.24.39.33.57.05.1.25.69.3.75.1.12.57.02.61.36-.16.11.06.22-.08.31-.39-.28-1.37-.6-1.29.16.06.51.03.75.57.63l.08-.79c.27.19-.2.79.32.79.16,0,.02-.41.23-.56.16-.11.71-.16.97-.23.19-.06.48-.35.65-.25.19.12.81.98,1.03,1.22.23-.02.63.23.73.41.28.53-.09.85.64.53-.02.22.04.48,0,.69-.02.12-.22.1-.26.16-.09.15-.08.32-.14.43-.13.23-.53-.24-.4.31.63,0,1.14.47,1.12-.48.73.4.12.97-.32,1.35.34.42.95.43.81,1.1-.02.11-.34.07-.34.18,0,.65.81.89.65.07.28-.06.1.21.17.31.03.04.4-.22.47-.15l-.16.47c.93-.12.72.09,1.02.59.02.03.69.45.14.52-.61.08-.22.2-.4.44-.08.11-.34-.06-.28.2.42.17.6.06.96-.16-.34.31.24,1.05.16,1.11-.22.16-.61.21-.8.64-.37-.26-.39-.24-.8-.32.15-.55-.57-.31-.61-.35-.11-.09-.1-.44-.35-.44-.09.34-.05.51,0,.79.04.21.25.49.16.79.27.07.07-.29.26-.32.33-.05.69.09,1.02-.15-.06.62,0,.45.48.48.6.04.2.21.23.56.02.2.48.49.18.89-.14.18-.72.04-.16.61.14.15.41.22.48.32.07.1-.16.58.08.8-.47-.15-.66.21-.88.32-.16.07.04-.4-.24-.32l.16.95c-.49.16-.37-.53-.48-.64-.07-.06-.93.18-.88.48-.07-.04-.38-.48-.4-.56-.03-.11.53,0,.32-.4-.53.4-1.01-.19-1.2-.16-.34.05-.17.44.08.56-.52.02-.11.35-.16.4-1.02-.42-.77.28,0,.48-.11.92-.57.05-1.04.32l.08-.32c-.44-.21-.49.32-.59.32-.14.01-.31-.02-.54,0-.15.01-.48-.07-.48.08l.48.08-.24.48c-.08.04-.18-.54-.51-.62-.06-.01-.89.25-1.02.31-.18-.29-.53.07-.85-.02-.21-.06-.34-.39-.54-.44-.24-.06-.5.16-.69.14-.03,0-.61-.14-.64-.16-.22-.1-.52-.54-.8-.64.04-.05.09-.36.16-.48-.14-.03-.38.04-.48,0-.5-.19-.68-.48-1.44-.64-.17-.04-.1-.53-.8-.8-.53-.2-.63-.11-1.12-.16-.18-.02-.36-.18-.71-.16-1.04.05-1.06.28-1.53.96-.21.03-.57.29-.73,0-.21-.37.19-.86-.62-.63-.34.1-.24.78-.58.94-.08-.14-.81-.59-1.01-.67-.32-.12-.57-.07-.76-.12-.11-.03-.21-.51-.63-.32-.18.12-.11,1.06,0,1.27-.24.34-1.05.4-1.28.16-.06-.06-.14-.63-.48-.64.03.3.02.43-.16.64.1-.76-.01-.94-.8-.95.18.17.24.51.32.64-.24,0-.42.09-.48.32-.34-.53-.22-.14-.72-.15-.23,0-.43-.11-.64-.17l-.08.32c-.66-.35-.96-.77-1.76-.48.11.44.87.71,1.04.96.12.18.04.35.08.47-.37-.15-.7-.43-1.12-.48-.51-.05-.57.14-.64.64-.02.12,0,.33.16.32-.01.09-.17.22-.15.4,0,.07.25.62.31.71-.84.42-.33-.35-.48-.48-.06-.05-.57.08-.63-.01-.11-.14.24-.61-.49-.47.39-.55-.15-.18-.3-.34-.2-.21.35-.41-.5-.46-.11,0-.21,0-.32,0h-.32v-.32c-.13-.04-.14.16-.16.16-.53.13-.55.31-.58.32-.26.06-.59-.03-.86,0v.64c-.11.01-.61.27-.48.48h-.16c-.02-.1.03-.24,0-.32l.14-.09c-.11-.27-.07-.63-.14-.86.18-.1.49-.08.64-.4-.6-.69-.53-.38-.96.16-.06.14.25-.03.32.24-.09.05-.14,0-.32.16-.21.17-.12.45-.64.32l.16-.32H.8c.22-.34-.06-1.06.14-1.34.13-.18,1.08-.02.18-.73.06.45-.28.32-.65.32-.02-.03.17-.3.16-.32l.16-.09c.06-.26-.05-.48-.31-.55v.32h-.16c0-.21-.11-.42-.32-.48v-.8h.48c-.02-.2.03-.44,0-.64-.13-.69.42-.65.56-.16.03-.22.5-.48.52-.52.11-.2.19-.95.53-1.07.11-.04.42.05.48,0,.04-.03-.53-.83.24-.64l.08.16c-.05.11-.27.2-.16.48.73-.13.51-.27.73-.62.16-.25.7-.57.15-.81-.26-.11-.2.18-.36.3-.06.04-.19,0-.2.01l-.48-.32c.04.52.09.6-.4.79-.41-.58-.21-1.25-1.2-1.11.06-.3.39-.32.64-.32.07-.3-.27-.51-.3-.74,0-.07.3-.65.33-.67.09-.07.52.29.61-.17.22.04.42,0,.64.16-.14-.37.22-.67.25-.87,0-.05-.09-.07-.09-.08-.06-.86-.38-.29-.49-.58-.06-.16-.16-.48,0-.61.41-.37.6-.08.88-.07.14,0,.07-.27.1-.32.1-.15.8.57.8.63,0,.07-.18.27-.16.39.1.43.77.02,1.12.09.06-.2-.14-.37-.16-.48-.15-.89.29-.59,1.03-.8.52-.15-.27-.42-.3-.47-.07-.11.29-.5-.29-.3-.37.13-.77.71-.46-.17-.55,0-.12-.29-.17-.56-.03-.16-.28-.29-.28-.34-.01-.16.74-.45.96-.4l-.32-.79c.59-.04,1.41.52.96-.32.26-.03.55.03.8,0,.89.48-.18.82-.16.87l.4.4c.37-.24.36-.9.88-.55l-.08.56c.4-.55.6-.44,1.21-.32.07-.11-.16-.61.24-.48.11.45.27.18.4.26.26.15.4.54.72.54.05,0,.16-.38.4-.4-.31-1.1-1.45.2-1.29-1.19-.35.05-.17.64-.48.32-.04-.04-.02-.09-.16-.16-.04-.02-.11.01-.16,0,.04-.06.11-.1.16-.16.11-.12.22-.32.33-.39.39-.22.65.12.31-.57.32-.08.43.33.72.32.24,0,.45-.34.72-.32l-.42-.48c-.07,0-.15,0-.22,0-.07.01-.22.19-.3.14-.11-.08-.3-.48-.34-.62l.48-.48.16.32c-.06-.45.61-.43.96-.47.13.23-.41.59-.32.63.16.09.35-.01.48.4-.94.32.21.55.32.4.18-.25-.42-.71.64-.71-.09-.38-1.16-.07-.96-.48.11-.23,1.2-.79,1.27-.7l.09.3c.43-.27.1-.44.08-.64,0-.09-.02-.25,0-.32l.4.64c.14-.01.07-.3.23-.4.03-.02.75-.23.81-.24.03,0,.59.02.62.04.14.11-.08.49.71.11.13-.06.11-.24.2-.27.02,0,.54-.05.56-.03.02.02-.09.19-.07.33.02.12.13.23.16.38.02.1-.09.21-.09.24.03.27.57.68.87.64.04,0,.37-.47.48-.58.08-.09.24-.06.25-.07.24-.38-.43-.37-.48-.47-.08-.15-.03-.6-.32-.8h.32-.01Z" fill="#2c2c2c"/>
    <polygon points="27.92 12.58 27.6 12.89 27.6 12.58 27.92 12.58" fill="#4c4c4c"/>
    <path d="M22.3,2.24c.14-.03.33.04.52-.03.2-.07.28-.28.52-.29.08,0-.03.19.4.32.05.6-.2.43-.32.64-.19,0-.32-.1-.48-.16-.19-.07-.34-.25-.64-.16.01-.1-.02-.23,0-.32h0Z" fill="#2c2c2c"/>
    <path d="M29.68,20.37c-.06.11-.27-.09-.16-.32.06-.11.27.09.16.32Z" fill="#343434"/>
    <path d="M23.74,2.24c0-.07-.2-.24-.15-.3.03-.03.23-.06.37-.19.09-.08.08-.28.1-.3.12-.09,1.38.54.48.7.09.12.14.26.15.4-.11,0-.73-.25-.96-.32h0Z" fill="#2c2c2c"/>
    <path d="M7.38,4.31c.17-.44.57-.61.32-1.11l.56.64c.56.05-.03-.69.08-.79.3-.3.31.51.64.32-.02.07.04.24,0,.36-.05.15-.33.09-.33.2,0,.16.17.21.17.23,0,.05,0,.1,0,.16,0,.06,0,.11,0,.16-.48.81-.43.06-.63-.08-.17-.12-.45-.09-.65-.07-.05,0-.11,0-.16,0h0Z" fill="#2c2c2c"/>
    <path d="M0,17.19c.21.06.31.27.32.48h.16v-.32c.27.07.38.29.31.55l-.16.09s-.57-.18-.64-.48v-.32h0Z" fill="#343434"/>
    <path d="M8.34,7.81l.08-.16c.12,0,.27-.05.24.08l-.16.08s-.11,0-.16,0Z" fill="#606060"/>
    <path d="M21.02,28.48c.12-.22-.1-.42-.16-.32-.11.22.1.42.16.32ZM18.45,25.06c0,.98,0,1.96,0,2.94l.34-1.51-.17-1.83c-.46.12-.16.32-.16.4h0ZM20.53,28c-.09-.81-.64-1.35-.76-2.19-.06-.42-.03-.81-.04-1.23,0-.19.12-.59-.16-.55-.29,1.24-.17,2.19.43,3.3.11.2.3.19.32.24.1.19-.08.48.2.44h0ZM17.01,27.52c.16-1.06.32-2.02-.04-3.06-.06-.16-.06-.47-.28-.44-.04.43.25.79.31,1.2.09.67-.05,1.14-.14,1.75-.02.17-.14.58.14.54h0ZM11.39,21.32c-.06-.82-1.41-.23-2.17-.31-.45-.05-.63-.28-1.04-.32.42,1.53,2.06.76,3.21.63ZM14.44,18.94c-.1-.21-.17-1.15,0-1.27.43-.2.53.28.63.32.68,1.03,1.55,1.99,1.93,3.18l.16-1.03c-.03-.25-.22-1.19-.32-1.35.34-.16.24-.84.58-.94.81-.23.41.26.62.63.16.28.51.03.73,0-.26.37-.6.75-.65,1.18-.02.15-.05.55.25.4.56-.27,1.34-1.59,2.01-1.91l-1.15,2.12c-.23.83-.86,1.69-.46,2.56.23.5.81-.38.89-.69.15-.57.08-1.15.28-1.79.28-.89,1.09-1.69,1.08-2.67.5.05.6-.04,1.12.16-.41.18-1.28,2.2-1.12,2.39.48-.33.99-.66,1.46-1.01.22-.16.5-.21.47-.57.76.15.94.44,1.44.64-.36.49-.95.27-1.56.6-1.08.6-1.71,1.49-1.81,2.74.24.25,1.63-1.25,1.84-1.43.44-.36,1.57-1.06,1.84-1.43.28.1.58.54.8.64-.56.55-1.38.74-2.01,1.28-.12.11-.74.64-.56.79,1.45-.25,2.47-.57,3.21-1.91.19.02.45-.2.69-.14.21.05.33.38.54.44.32.09.67-.28.85.02-.02,0-.06.23-.27.29-.33.09-.75-.02-1.07.18-.14.09-.21.38-.43.56-1.61,1.28-4.29,1.24-5.45,2.39-1.04,1.03-.24,3.3.89,3.9.45.24-.13-.42.32-.32,1,.21,2.06.67,3.12.88,2.95.6,6.31.82,9.31.87-.17.21-.49.27-.73.31-.93.12-2.12.28-3.03.33-1.34.08-2.75-.06-4.09,0l2.08,1.11-4.73-.64-3.61-.15c.24.44,1.22.62.88,1.27-2.33-.84-4.88-1.42-7.38-1.28-1.09.06-2.29.39-3.37.48-.29.02-.59-.01-.88,0l3.21-1.03.48-.4c-1.32,0-2.62.35-3.93.48-1.51.15-2.68.11-4.17,0-.83-.07-1.81.19-2.49-.48,1.2-.17,2.84-.05,4.09-.16,2.07-.17,4.52-.43,6.5-1.03.65-.2,1.44-.68,1.93-.81.22-.05.45.1.47.08.24-.18.52-1.75.5-2.14-.13-2.14-2.75-3.54-4.74-3.42-1.21.07-2.85.78-3.61-.48-.06-.1-.31-.64-.32-.71-.01-.17.14-.31.16-.4.01-.07,0-.15-.02-.22l-.14-.1c.07-.5.13-.69.64-.64.48.35.52.96,1.28.79.08-.25-.16-.3-.16-.32-.04-.12.04-.29-.08-.47-.17-.25-.93-.52-1.04-.96.8-.3,1.11.13,1.76.48.59.31,1.14.69,1.76.95.03-.35-.14-.68-.32-.95.06-.23.25-.32.48-.32.06.1.37.47.4.48.11-.03.06-.14.08-.16.18-.21.19-.33.16-.64.34,0,.42.58.48.64-1.19,1.58,1.37,2.39,2.57,2.7.06-.76.01-1.27-.41-1.9-.17-.25-.79-.79-.87-.96h-.01Z" fill="#414141"/>
    <path d="M2.89,29.59c.68.67,1.66.41,2.49.48,1.49.12,2.66.15,4.17,0,1.31-.13,2.61-.49,3.93-.48l-.48.4-3.21,1.03c.29-.01.59.03.88,0,1.08-.1,2.28-.42,3.36-.48,2.5-.15,5.04.44,7.38,1.28.34-.65-.64-.83-.88-1.27l3.61.15,4.73.64-2.08-1.11c1.35-.06,2.76.08,4.09,0,.91-.06,2.1-.21,3.03-.33.25-.03.57-.1.73-.31.21,0,.43,0,.64,0-.03.18.06.49-.02.61-.07.11-2.06.93-2.39,1.05-8.24,3.16-21.26,3.24-29.31-.53-.48-.23-1.94-.97-.69-1.14h0Z" fill="#7c7c7c"/>
  </g>
</svg>